<svg width="36" height="35" viewBox="0 0 36 35" fill="none" xmlns="http://www.w3.org/2000/svg">
<path d="M13.716 3.11861C15.6593 -0.110488 20.3407 -0.110494 22.284 3.11861L24.4784 6.76491C25.1766 7.92497 26.3153 8.75232 27.6343 9.0578L31.7803 10.018C35.4518 10.8684 36.8985 15.3207 34.4279 18.1667L31.6382 21.3805C30.7507 22.4029 30.3157 23.7416 30.4328 25.0905L30.8007 29.3302C31.1266 33.0849 27.3392 35.8366 23.869 34.3664L19.9505 32.7063C18.7038 32.1782 17.2962 32.1782 16.0496 32.7063L12.131 34.3664C8.66084 35.8366 4.87344 33.0849 5.19929 29.3302L5.56724 25.0905C5.68431 23.7416 5.24935 22.4029 4.3618 21.3805L1.57206 18.1667C-0.898484 15.3207 0.548169 10.8684 4.21974 10.018L8.36568 9.05781C9.6847 8.75232 10.8234 7.92497 11.5216 6.76491L13.716 3.11861Z" fill="#303030"/>
</svg>
