<svg width="96" height="60" viewBox="0 0 96 60" fill="none" xmlns="http://www.w3.org/2000/svg">
<rect y="29" width="96" height="31" fill="#23CE6B"/>
<path d="M21.5569 47C21.1864 47 20.9002 46.899 20.6981 46.6969C20.496 46.4611 20.395 46.1749 20.395 45.8381V12.8503C20.395 12.4798 20.496 12.1935 20.6981 11.9915C20.9002 11.7557 21.1864 11.6379 21.5569 11.6379H42.168C42.5385 11.6379 42.8247 11.7557 43.0268 11.9915C43.2289 12.1935 43.3299 12.4798 43.3299 12.8503V14.871C43.3299 15.2414 43.2289 15.5277 43.0268 15.7298C42.8247 15.9318 42.5385 16.0329 42.168 16.0329H25.2952V27.8034H41.1576C41.5281 27.8034 41.8144 27.9213 42.0164 28.157C42.2185 28.3591 42.3195 28.6454 42.3195 29.0158V31.0365C42.3195 31.3733 42.2185 31.6596 42.0164 31.8953C41.8144 32.0974 41.5281 32.1984 41.1576 32.1984H25.2952V45.8381C25.2952 46.1749 25.1773 46.4611 24.9416 46.6969C24.7395 46.899 24.4532 47 24.0828 47H21.5569ZM51.3108 47C50.9404 47 50.6541 46.899 50.452 46.6969C50.25 46.4611 50.1489 46.1749 50.1489 45.8381V12.8503C50.1489 12.4798 50.25 12.1935 50.452 11.9915C50.6541 11.7557 50.9404 11.6379 51.3108 11.6379H65.1526C67.6785 11.6379 69.7328 12.0588 71.3157 12.9008C72.9323 13.7091 74.111 14.8204 74.8519 16.2349C75.6265 17.6494 76.0138 19.2323 76.0138 20.9836C76.0138 22.3644 75.7781 23.5599 75.3066 24.5703C74.8688 25.547 74.3131 26.3552 73.6395 26.9951C72.9659 27.6013 72.3092 28.0728 71.6693 28.4096C72.9828 29.0495 74.1447 30.0935 75.155 31.5417C76.1991 32.9899 76.7211 34.7411 76.7211 36.7955C76.7211 38.6478 76.3001 40.3485 75.4581 41.8977C74.6162 43.4469 73.3532 44.693 71.6693 45.636C70.0191 46.5453 67.9647 47 65.5062 47H51.3108ZM55.0996 42.9081H64.8495C67.0386 42.9081 68.7225 42.3187 69.9012 41.14C71.08 39.9612 71.6693 38.5131 71.6693 36.7955C71.6693 35.0105 71.08 33.5455 69.9012 32.4005C68.7225 31.2217 67.0386 30.6324 64.8495 30.6324H55.0996V42.9081ZM55.0996 26.591H64.3948C66.5502 26.591 68.1836 26.1027 69.295 25.126C70.4064 24.1156 70.9621 22.7517 70.9621 21.0341C70.9621 19.3165 70.4064 18.003 69.295 17.0937C68.1836 16.1844 66.5502 15.7298 64.3948 15.7298H55.0996V26.591Z" fill="#DBF227"/>
</svg>
