<svg width="60" height="60" viewBox="0 0 60 60" fill="none" xmlns="http://www.w3.org/2000/svg">
<g clip-path="url(#clip0_19_418)">
<path d="M30.0073 0C13.4652 0 0 13.4652 0 30.0073C0 46.5494 13.4652 60.0146 30.0073 60.0146C46.5494 60.0146 60.0146 46.5494 60.0146 30.0073C60 13.4652 46.5494 0 30.0073 0Z" fill="#00285E"/>
<path d="M56.8791 30.0073C56.8791 15.1648 44.8498 3.1355 29.9927 3.1355C15.1502 3.1355 3.10623 15.1648 3.10623 30.0073C3.10623 44.8498 15.1502 56.8937 29.9927 56.8937C44.8498 56.8791 56.8791 44.8498 56.8791 30.0073Z" fill="white"/>
<path d="M47.1209 30.0074C47.1209 20.5568 39.4579 12.8938 30.0073 12.8938C20.5568 12.8938 12.8938 20.5568 12.8938 30.0074C12.8938 39.4579 20.5568 47.1209 30.0073 47.1209C39.4579 47.1209 47.1209 39.4579 47.1209 30.0074Z" fill="#6CADDF"/>
<path d="M30.0073 48.4689C19.8242 48.4689 11.5458 40.1758 11.5458 29.9927C11.5458 19.8095 19.8242 11.5311 30.0073 11.5311C40.1905 11.5311 48.4835 19.8095 48.4835 29.9927C48.4689 40.1905 40.1905 48.4689 30.0073 48.4689ZM30.0073 12.5714C20.3956 12.5714 12.5714 20.3956 12.5714 30.0073C12.5714 39.619 20.3956 47.4432 30.0073 47.4432C39.619 47.4432 47.4432 39.619 47.4432 30.0073C47.4432 20.3956 39.619 12.5714 30.0073 12.5714Z" fill="#00285E"/>
<path d="M30.0073 58.7838C14.1392 58.7838 1.23077 45.8754 1.23077 30.0073C1.23077 14.1391 14.1392 1.23071 30.0073 1.23071C45.8755 1.23071 58.7839 14.1391 58.7839 30.0073C58.7692 45.8754 45.8755 58.7838 30.0073 58.7838ZM30.0073 1.8461C14.4762 1.8461 1.86081 14.4761 1.86081 30.0073C1.86081 45.5238 14.4908 58.1538 30.0073 58.1538C45.5238 58.1538 58.1539 45.5238 58.1539 30.0073C58.1539 14.4761 45.5238 1.8461 30.0073 1.8461Z" fill="#6CADDF"/>
<path d="M5.99267 29.3479L5.50916 29.4652L5.37729 28.967L6.18315 28.7326H6.59341V31.5457H5.99267V29.3479ZM7.2967 30.7692C7.2967 30.4175 7.45788 30.2271 7.75092 30.0952C7.53114 29.9633 7.39927 29.7875 7.39927 29.4798V29.4652C7.39927 29.0402 7.79487 28.7032 8.38095 28.7032C8.96703 28.7032 9.36264 29.0402 9.36264 29.4652V29.4798C9.36264 29.7728 9.23077 29.9633 9.01099 30.0952C9.28938 30.2417 9.4652 30.4175 9.4652 30.7545V30.7692C9.4652 31.282 9.01099 31.5897 8.3956 31.5897C7.78022 31.5897 7.2967 31.2527 7.2967 30.7692ZM8.84982 30.7252C8.84982 30.5054 8.64469 30.3736 8.3663 30.3736C8.08791 30.3736 7.88278 30.5054 7.88278 30.7106C7.88278 30.9011 8.05861 31.0622 8.3663 31.0622C8.67399 31.0622 8.84982 30.9157 8.84982 30.7252ZM8.77656 29.5531C8.77656 29.3772 8.63004 29.2161 8.38095 29.2161C8.13187 29.2161 7.98535 29.3626 7.98535 29.5384V29.5531C7.98535 29.7435 8.14652 29.8901 8.38095 29.8901C8.61538 29.8901 8.77656 29.7435 8.77656 29.5531ZM51.5311 30.3882C51.3846 30.5054 51.2088 30.5787 50.9597 30.5787C50.359 30.5787 49.9634 30.2417 49.9634 29.6849V29.6703C49.9634 29.1135 50.4029 28.6886 51.033 28.6886C51.4139 28.6886 51.619 28.7765 51.8388 28.9963C52.044 29.2014 52.1612 29.4945 52.1612 30.0512V30.0659C52.1612 30.9743 51.7363 31.5897 50.9451 31.5897C50.5348 31.5897 50.2711 31.4578 50.022 31.2527L50.3443 30.7838C50.5494 30.945 50.7253 31.0183 50.9597 31.0183C51.3846 31.0183 51.5018 30.6227 51.5311 30.3882ZM51.5458 29.6556C51.5458 29.4065 51.37 29.2161 51.0623 29.2161C50.7546 29.2161 50.5934 29.3919 50.5934 29.641V29.6556C50.5934 29.9047 50.7839 30.0805 51.0769 30.0805C51.37 30.0659 51.5458 29.8901 51.5458 29.6556ZM54.1245 30.9304H52.7619L52.6593 30.4908L54.1831 28.7179H54.696V30.4322H55.0769V30.9304H54.696V31.5311H54.1099V30.9304H54.1245ZM54.1245 30.4322V29.5677L53.3773 30.4322H54.1245Z" fill="#6CADDF"/>
<path d="M30.0073 47.4432C20.3956 47.4432 12.5714 39.619 12.5714 30.0073C12.5714 20.3956 20.3956 12.5714 30.0073 12.5714C39.619 12.5714 47.4432 20.3956 47.4432 30.0073C47.4432 39.619 39.619 47.4432 30.0073 47.4432ZM30.0073 13.2161C20.7472 13.2161 13.2161 20.7472 13.2161 30.0073C13.2161 39.2674 20.7472 46.7985 30.0073 46.7985C39.2674 46.7985 46.7985 39.2674 46.7985 30.0073C46.7985 20.7472 39.2674 13.2161 30.0073 13.2161Z" fill="white"/>
<path fill-rule="evenodd" clip-rule="evenodd" d="M29.685 14.989C21.0843 14.989 16.1172 16.1172 16.1172 16.1172C16.1172 16.1172 14.1392 23.663 15.2674 33.3187C15.7363 37.3773 19.033 46.0952 29.9634 49.0843C40.8938 46.1099 44.1905 37.3773 44.6593 33.3187C45.7875 23.6484 43.8095 16.1172 43.8095 16.1172C43.8095 16.1172 38.8425 14.989 30.2418 14.989H29.685Z" fill="#00285E"/>
<path fill-rule="evenodd" clip-rule="evenodd" d="M43.1502 31.0769C43.0476 34.0073 42.5934 42.7692 29.9487 47.5897C17.4066 42.9011 16.7473 33.8315 16.7473 31.0769H43.1502Z" fill="#97C1E7"/>
<path fill-rule="evenodd" clip-rule="evenodd" d="M42.7692 30.5934C43.1062 23.326 41.8755 17.4359 41.8755 17.4359C41.8755 17.4359 37.1575 16.5275 29.9634 16.5275C22.7546 16.5275 17.9634 17.5238 17.9634 17.5238C17.9634 17.5238 16.6593 23.4432 17.011 30.5787H42.7692V30.5934Z" fill="white"/>
<path d="M30.3443 47.326L16.9963 31.1941C16.5128 34.5201 19.2088 44.3223 30.3443 47.326ZM20.9817 31.0916L33.3333 45.9927C34.5788 45.3919 35.5018 44.8058 36.381 44.1025L25.5971 31.0916H20.9817ZM29.5531 31.1062L38.6813 42.1099C39.5751 41.0989 40.337 40.1758 40.8791 39.2088L34.1685 31.1062H29.5531ZM42.9304 31.1062L38.3736 31.0916L42.1978 35.7069C42.8571 34.2857 42.9304 31.8974 42.9304 31.1062Z" fill="#6CADDF"/>
<path d="M35.3407 37.1428C35.3114 37.0402 35.2234 36.9523 35.1209 36.9084L34.359 36.6446C34.2857 36.6153 34.2271 36.63 34.1538 36.6446C34.0952 36.3809 33.9487 36.1465 33.7289 35.9853C33.6996 35.9706 33.6703 35.9413 33.641 35.9267C33.5971 35.8974 33.5385 35.8681 33.4799 35.8388C33.3773 35.7948 33.2747 35.7655 33.1868 35.7362C32.967 35.663 32.7473 35.5897 32.4689 35.3992C32.2051 35.2087 32.0879 35.0329 31.9707 34.8717C31.9414 34.8278 31.9121 34.7985 31.8828 34.7545C31.8095 34.6373 31.707 34.5347 31.6044 34.4468C31.4139 34.315 31.1795 34.2417 30.9451 34.2417C30.8864 34.2417 30.8425 34.2564 30.7839 34.2564V34.2417C30.7985 34.1538 30.7692 34.0512 30.7253 33.978L30.2564 33.3479C30.1832 33.26 30.0806 33.2014 29.9634 33.2014C29.8462 33.2014 29.7436 33.2454 29.685 33.3333L29.1868 33.9633C29.1282 34.0366 29.0989 34.1391 29.1136 34.2417C29.0696 34.2417 29.0403 34.2271 28.9963 34.2271C28.7619 34.2271 28.5275 34.3003 28.337 34.4322C28.3077 34.4468 28.2784 34.4761 28.2637 34.4908C28.2198 34.5347 28.1758 34.5641 28.1319 34.6227C28.0586 34.7106 28 34.7838 27.9414 34.8717C27.7949 35.0622 27.6777 35.238 27.3846 35.4432C27.1209 35.6336 26.9158 35.6923 26.7253 35.7509L26.5934 35.7948C26.4615 35.8241 26.3297 35.8827 26.2125 35.9706C25.978 36.1318 25.8315 36.3809 25.7729 36.6593C25.6996 36.63 25.6117 36.63 25.5238 36.6446L24.7766 36.8937C24.674 36.923 24.5861 37.0109 24.5421 37.1135C24.5128 37.2161 24.5275 37.3333 24.5861 37.4212L25.0403 38.0805C25.0989 38.1538 25.1722 38.1978 25.2601 38.2271C25.1429 38.4761 25.1136 38.7838 25.2015 39.0476C25.2161 39.0769 25.2308 39.1062 25.2308 39.1355C25.2454 39.1941 25.2747 39.2527 25.3187 39.3113C25.3773 39.3992 25.4359 39.4871 25.4945 39.5604C25.641 39.7509 25.7729 39.9267 25.8755 40.2637C25.978 40.5714 25.9634 40.7765 25.9634 40.9816V41.1282C25.9487 41.2747 25.9634 41.4065 26.022 41.5384C26.1099 41.8021 26.3004 42.0219 26.5201 42.1538C26.4908 42.2124 26.4615 42.271 26.4762 42.3296V43.1208C26.4762 43.238 26.5348 43.3406 26.6227 43.3992C26.7106 43.4578 26.8278 43.4871 26.9304 43.4578L27.707 43.238C27.7802 43.2234 27.8242 43.1648 27.8681 43.1208C28.1026 43.3406 28.4249 43.4432 28.7326 43.4285C28.7912 43.4285 28.8498 43.4139 28.9231 43.3992C29.0256 43.3699 29.1282 43.3406 29.2161 43.3113C29.4359 43.238 29.6557 43.1648 30.0073 43.1648C30.3297 43.1648 30.5201 43.238 30.7253 43.2967L30.8571 43.3406C30.989 43.3992 31.1355 43.4139 31.2674 43.4139C31.5458 43.4139 31.8242 43.2967 32.0293 43.1062C32.0733 43.1648 32.1172 43.1941 32.1905 43.2234L32.9524 43.4578C33.0549 43.4871 33.1722 43.4725 33.2747 43.4139C33.3626 43.3553 33.4212 43.2527 33.4212 43.1355L33.4359 42.3443C33.4359 42.2857 33.4212 42.2271 33.3919 42.1684C33.6264 42.0366 33.8169 41.8168 33.8901 41.5531C33.9048 41.5238 33.9048 41.4945 33.9194 41.4505C33.9341 41.3919 33.9487 41.3333 33.9487 41.26C33.9634 41.1575 33.9634 41.0549 33.9634 40.9523C33.9634 40.7179 33.9634 40.4981 34.0659 40.1611C34.1685 39.8534 34.2857 39.6923 34.4176 39.5311C34.4469 39.4871 34.4762 39.4578 34.5055 39.4139C34.5934 39.3113 34.6667 39.1794 34.7106 39.0476C34.7985 38.7692 34.7692 38.4615 34.6374 38.1978C34.7106 38.1684 34.7692 38.1391 34.8132 38.0805L35.2821 37.4358C35.3553 37.3626 35.3846 37.26 35.3407 37.1428Z" fill="#00285E"/>
<path d="M29.5385 38.8572C29.5385 38.6081 29.7436 38.4176 29.9927 38.4176C30.2418 38.4176 30.4469 38.6227 30.4469 38.8572C30.4469 39.1062 30.2418 39.2967 29.9927 39.2967C29.7436 39.2967 29.5385 39.0916 29.5385 38.8572Z" fill="#FFC758"/>
<path d="M29.978 35.077C29.9048 34.7986 29.7289 34.5641 29.5092 34.4323L29.978 33.8315L30.4176 34.4323C30.1978 34.5788 30.0513 34.7986 29.978 35.077ZM26.3883 37.685C26.1539 37.5239 25.9927 37.3187 25.9048 37.0696L25.2015 37.3041L25.6264 37.9195C25.8315 37.7729 26.1099 37.685 26.3883 37.685ZM27.7802 41.8315C27.5604 42.0074 27.3114 42.0953 27.033 42.0953V42.8425L27.7656 42.6228C27.6777 42.3883 27.6777 42.1099 27.7802 41.8315ZM32.1758 41.8462C32.2784 42.1099 32.2784 42.3737 32.1905 42.6228L32.9084 42.8425L32.9231 42.0953C32.674 42.1099 32.4103 42.022 32.1758 41.8462ZM33.5385 37.6997C33.8315 37.685 34.0806 37.7583 34.2857 37.9195L34.7253 37.3187L34.0073 37.0696C33.9487 37.3041 33.7729 37.5385 33.5385 37.6997ZM29.0696 41.8609C28.7326 41.8609 28.4689 41.5971 28.4689 41.2601C28.4689 41.2162 28.4249 41.2015 28.3956 41.2308C28.1758 41.4945 28.0147 41.729 28 42.0074C27.9854 42.4176 28.337 42.7546 28.7619 42.7546H28.8352C28.8791 42.7546 28.9084 42.7546 28.967 42.74C29.2601 42.6667 29.5238 42.5202 30.022 42.5202C30.4469 42.5202 30.6667 42.6374 30.8865 42.696C30.9744 42.7253 31.0769 42.7546 31.1795 42.7546C31.6044 42.7546 31.9414 42.4176 31.9414 42.0074C31.9414 41.7143 31.7656 41.4945 31.5458 41.2308C31.5311 41.2015 31.4872 41.2308 31.4872 41.2601C31.4872 41.5825 31.2088 41.8609 30.8865 41.8609C30.6374 41.8609 30.315 41.6411 29.9927 41.6411C29.7143 41.6411 29.3187 41.8609 29.0696 41.8609ZM28.674 41.0403C28.674 41.3187 28.8938 41.5385 29.1722 41.5385C29.2015 41.5385 29.2308 41.5385 29.2747 41.5239C29.2894 41.5239 29.304 41.5239 29.3187 41.5092H29.3333C29.5092 41.4506 29.6703 41.3773 29.978 41.3773C30.2857 41.3773 30.4322 41.4652 30.6081 41.5092C30.6667 41.5239 30.7253 41.5385 30.7839 41.5385C31.0623 41.5385 31.2821 41.3187 31.2821 41.0403C31.2821 40.9671 31.2674 40.8938 31.2381 40.8352C31.2234 40.8059 31.2088 40.7766 31.1941 40.7619C31.1941 40.7619 30.3443 39.6044 30.315 39.5751C30.2711 39.5165 30.2125 39.5458 30.1832 39.5605C30.1392 39.5751 30.0366 39.6044 29.9634 39.6044C29.8901 39.6044 29.8022 39.5898 29.7582 39.5605C29.6996 39.5312 29.6557 39.5165 29.6264 39.5751C29.5971 39.6191 28.9817 40.4543 28.7912 40.718C28.718 40.8059 28.674 40.9085 28.674 41.0403ZM32.5861 40.6594C32.4835 40.9817 32.1465 41.1429 31.8242 41.0403C31.7802 41.0257 31.7509 41.055 31.7802 41.0989C31.9707 41.3773 32.1319 41.6118 32.4103 41.7143C32.8059 41.8462 33.2454 41.6264 33.3626 41.2308C33.3773 41.2015 33.3773 41.1869 33.3773 41.1576C33.3919 41.1282 33.3919 41.0843 33.4066 41.0403C33.4359 40.7326 33.3626 40.4543 33.5238 39.9707C33.6557 39.5751 33.8315 39.3993 33.9634 39.2088C34.022 39.1356 34.0806 39.0477 34.1099 38.9597C34.2418 38.5641 34.022 38.1246 33.6264 38.0074C33.348 37.9195 33.0696 38.022 32.7473 38.1392C32.718 38.1539 32.718 38.1832 32.7619 38.1978C33.0843 38.3004 33.2601 38.6374 33.1575 38.9597C33.0843 39.1942 32.7766 39.4286 32.674 39.7363C32.5861 39.9854 32.674 40.4103 32.5861 40.6594ZM31.6777 40.7766C31.9414 40.8645 32.2344 40.718 32.3223 40.4543C32.337 40.425 32.337 40.3956 32.337 40.3517V40.2931C32.337 40.1173 32.3077 39.9268 32.3956 39.6484C32.4982 39.3554 32.6154 39.2381 32.718 39.0916C32.7473 39.0477 32.7766 38.9891 32.8059 38.9304C32.8938 38.6667 32.7473 38.3883 32.4835 38.3004C32.4103 38.2858 32.337 38.2711 32.2784 38.2858C32.2491 38.2858 32.2198 38.2858 32.1905 38.3004C32.1905 38.3004 30.8132 38.74 30.7692 38.7546C30.7106 38.7839 30.7106 38.8425 30.7106 38.8718C30.7106 38.9158 30.696 39.0184 30.6813 39.0916C30.6667 39.1502 30.6227 39.2381 30.5788 39.2821C30.5348 39.3261 30.5055 39.37 30.5495 39.414C30.5934 39.4579 31.1795 40.2931 31.3846 40.5568C31.4579 40.6594 31.5604 40.7326 31.6777 40.7766ZM32.4982 36.9378C32.7766 37.1282 32.8352 37.5092 32.63 37.7729C32.6007 37.8022 32.63 37.8462 32.674 37.8315C33.011 37.7436 33.2747 37.6557 33.4506 37.4213C33.6996 37.0843 33.6264 36.6154 33.2894 36.3663C33.2747 36.3517 33.2454 36.337 33.2161 36.3224C33.1868 36.2931 33.1575 36.2784 33.0989 36.2638C32.8205 36.1466 32.5275 36.1173 32.1172 35.8242C31.7802 35.5751 31.663 35.3554 31.5165 35.1649C31.4725 35.0916 31.3993 35.0184 31.3114 34.9451C30.9744 34.696 30.4908 34.7693 30.2564 35.1063C30.0952 35.3407 30.0952 35.6337 30.1099 35.9707C30.1099 36 30.1538 36.0147 30.1685 35.9707C30.359 35.707 30.7399 35.6484 31.0183 35.8389C31.2234 35.9854 31.3553 36.3517 31.6191 36.5275C31.8535 36.7473 32.293 36.7913 32.4982 36.9378ZM32.337 37.8462C32.4982 37.6264 32.4542 37.3041 32.2198 37.1429C32.2051 37.1282 32.1758 37.0989 32.1319 37.0843C32.1172 37.0843 32.1026 37.0696 32.0879 37.0696H32.0733C31.8974 37.011 31.7216 36.9817 31.4725 36.8059C31.2234 36.6301 31.1502 36.4689 31.0476 36.337C31.0183 36.2931 30.9744 36.2491 30.9304 36.2052C30.7106 36.044 30.3883 36.088 30.2271 36.3224C30.1832 36.381 30.1538 36.4396 30.1392 36.5129C30.1392 36.5422 30.1245 36.5715 30.1245 36.6008V38.0806C30.1245 38.1539 30.1832 38.1539 30.2271 38.1685C30.2711 38.1832 30.3736 38.2271 30.4176 38.2565C30.4762 38.3004 30.5348 38.359 30.5641 38.403C30.5934 38.4469 30.6227 38.4909 30.6813 38.4616C30.7399 38.4323 31.7216 38.1246 32.0293 38.022C32.1612 38.0074 32.2637 37.9341 32.337 37.8462ZM28.9231 35.8828C29.1868 35.6923 29.5678 35.751 29.7729 36.0147C29.8022 36.044 29.8462 36.044 29.8462 36C29.8608 35.663 29.8608 35.37 29.6996 35.1356C29.4652 34.7986 28.9817 34.7253 28.6447 34.9744C28.6154 34.9891 28.6007 35.0037 28.5861 35.0184C28.5568 35.033 28.5275 35.0623 28.4982 35.1063C28.293 35.3407 28.1758 35.6044 27.7656 35.8975C27.4286 36.1466 27.1795 36.1905 26.9597 36.2491C26.8718 36.2784 26.7692 36.3077 26.696 36.3663C26.359 36.6154 26.2711 37.0843 26.5348 37.4213C26.7106 37.6557 26.989 37.7436 27.3114 37.8315C27.3407 37.8462 27.3553 37.8022 27.3407 37.7729C27.1502 37.5092 27.2088 37.1282 27.4725 36.9378C27.6777 36.7913 28.0586 36.7766 28.3223 36.5861C28.5275 36.4396 28.718 36.0293 28.9231 35.8828ZM29.7436 36.3224C29.5824 36.1026 29.2601 36.044 29.0403 36.2052C29.011 36.2198 28.9963 36.2345 28.967 36.2638L28.9377 36.2931L28.9231 36.3077C28.8205 36.4543 28.7326 36.6154 28.4835 36.7913C28.2344 36.9671 28.0586 36.9817 27.8974 37.055C27.8388 37.0696 27.7802 37.0989 27.7363 37.1282C27.5165 37.2894 27.4579 37.5971 27.6191 37.8315C27.663 37.8902 27.7216 37.9341 27.7802 37.9634C27.8095 37.9781 27.8242 37.9927 27.8535 37.9927C27.8535 37.9927 29.2308 38.4323 29.2747 38.4469C29.348 38.4616 29.3773 38.4176 29.3919 38.3883C29.4213 38.359 29.4799 38.2711 29.5385 38.2271C29.5971 38.1832 29.6703 38.1539 29.7289 38.1392C29.7875 38.1246 29.8315 38.1099 29.8315 38.0513V36.6447C29.8462 36.5422 29.8169 36.4249 29.7436 36.3224ZM26.8132 38.9451C26.7106 38.6228 26.8865 38.2858 27.1941 38.1832C27.2381 38.1685 27.2381 38.1246 27.2088 38.1099C26.8865 37.9927 26.6081 37.8902 26.3443 37.9781C25.9487 38.0953 25.7289 38.5348 25.8608 38.9304C25.8608 38.9598 25.8755 38.9744 25.8901 39.0037C25.9048 39.033 25.9194 39.077 25.9487 39.1209C26.1099 39.3847 26.3297 39.5751 26.4908 40.0587C26.6227 40.4543 26.5788 40.7033 26.5788 40.9378C26.5641 41.0257 26.5788 41.1282 26.6081 41.2308C26.7399 41.6264 27.1648 41.8462 27.5604 41.7143C27.8388 41.6264 28 41.392 28.1905 41.0989C28.2051 41.0696 28.1758 41.0403 28.1465 41.055C27.8242 41.1576 27.4872 40.9817 27.3846 40.674C27.3114 40.4396 27.4139 40.0733 27.3114 39.7656C27.2234 39.4872 26.8865 39.1795 26.8132 38.9451ZM27.4725 38.3151C27.2088 38.403 27.0623 38.6814 27.1502 38.9451C27.1502 38.9744 27.1648 39.0037 27.1941 39.033C27.2088 39.0477 27.2088 39.0623 27.2234 39.0623C27.2234 39.0623 27.2234 39.077 27.2381 39.077C27.3407 39.2235 27.4725 39.3554 27.5751 39.6337C27.6777 39.9268 27.6337 40.088 27.6484 40.2638C27.6484 40.3224 27.6484 40.381 27.6777 40.4396C27.7656 40.7033 28.044 40.8499 28.3077 40.7619C28.381 40.7473 28.4396 40.7033 28.4835 40.6594L28.5421 40.6008C28.5421 40.6008 29.3919 39.4433 29.4066 39.3993C29.4506 39.3407 29.4066 39.2967 29.3773 39.2674C29.348 39.2381 29.2894 39.1502 29.2747 39.077C29.2601 39.0184 29.2454 38.9304 29.2454 38.8718C29.2454 38.8132 29.2454 38.7693 29.1868 38.7546C29.1282 38.74 28.1465 38.4176 27.8388 38.3151C27.7216 38.2858 27.6044 38.2711 27.4725 38.3151Z" fill="#EE3124"/>
<path d="M34.1978 23.3554L37.2894 22.2858C37.2894 22.2858 37.0256 23.5751 37.0989 24.5715C37.1868 25.8609 37.9341 26.8425 37.9341 26.8425L34.1245 28.1612L34.1978 23.3554Z" fill="#FFC758"/>
<path d="M37.9341 26.8425C37.9341 26.8425 37.2601 25.8755 37.1429 24.7473C37.0549 23.8975 37.1429 23.1649 37.2894 22.2858C37.1575 22.8718 36.6593 24.5275 35.2674 26.066C34.7106 26.6814 34.4615 27.2235 34.359 27.6044L34.3004 20.3224C34.3004 20.3224 33.5678 20.5861 33.4945 20.6008C33.4066 20.6301 33.3626 20.6887 33.3626 20.7033C33.3626 20.7473 33.3333 20.7766 33.2747 20.7913C33.2161 20.8059 32.7912 20.9671 32.4982 21.055C32.4396 21.0696 32.4689 21.1282 32.4982 21.1282C32.8498 21.1136 33.348 21.0696 33.3919 21.0696C33.4652 21.055 33.4945 21.0257 33.4945 20.9817V20.9671C33.5092 20.9085 33.5531 20.8645 33.6117 20.8645C33.6557 20.8645 33.9194 20.8352 34.0806 20.8059L34.0073 28.6447H34.359V28.088L37.9341 26.8425Z" fill="#D4A11E"/>
<path d="M24.2344 28.3663C24.2344 28.3663 23.663 27.9414 23.5018 27.1356C23.3407 26.315 23.7509 25.8462 23.7509 25.8462L27.5018 24.5568C27.5018 24.5568 27.2674 25.3041 27.4872 26.1539C27.7656 27.2235 28.337 27.9414 28.337 27.9414C28.337 27.9414 26.9597 27.6777 25.6264 27.8535C24.3663 28.0147 24.2344 28.3663 24.2344 28.3663ZM19.9267 27.4286C19.9267 27.4286 20.3956 26.1539 21.7582 24.7619C22.7985 23.707 23.4725 23.3993 23.4725 23.3993C23.4725 23.3993 22.8718 24.2638 22.6227 25.685C22.4615 26.5641 22.6374 27.6777 22.6374 27.6777C22.6374 27.6777 21.9341 27.5312 21.1282 27.4432C20.4542 27.37 19.9267 27.4286 19.9267 27.4286Z" fill="#FFC758"/>
<path d="M23.4725 23.3992C23.4725 23.3992 22.8864 24.2637 22.6374 25.6849C22.4762 26.5641 22.652 27.6776 22.652 27.6776C22.652 27.6776 22.4762 27.6337 22.0659 27.5458C20.3956 27.1648 23.4725 23.3992 23.4725 23.3992ZM25.6703 24.4249L25.641 21.0549C25.5678 21.0842 24.9084 21.304 24.8352 21.3333C24.7473 21.3626 24.7033 21.4212 24.7033 21.4505C24.7033 21.4945 24.674 21.5238 24.6154 21.5384C24.5568 21.5531 24.1319 21.6996 23.8388 21.8022C23.7802 21.8168 23.8095 21.8754 23.8388 21.8754C24.1758 21.8608 24.6886 21.8168 24.7326 21.8168C24.8059 21.8022 24.8352 21.7729 24.8498 21.7289V21.7143C24.8645 21.6556 24.9084 21.6117 24.967 21.6117C25.011 21.6117 25.2601 21.5824 25.4359 21.5677L25.4066 24.4395H25.6703V24.4249ZM30.0366 21.3773H30.3004V18.1392C30.3004 18.1392 29.5678 18.4029 29.4945 18.4175C29.4066 18.4469 29.3626 18.5055 29.3626 18.5201C29.3626 18.5641 29.3333 18.5934 29.2747 18.608C29.2161 18.6227 28.7912 18.7692 28.4982 18.8718C28.4396 18.8864 28.4689 18.945 28.4982 18.945C28.8498 18.9304 29.348 18.8864 29.3919 18.8864C29.4652 18.8718 29.4945 18.8425 29.5092 18.7985C29.5238 18.7399 29.5678 18.6959 29.6264 18.6959C29.6703 18.6959 29.9048 18.6666 30.0806 18.652L30.0366 21.3773Z" fill="#D4A11E"/>
<path d="M29.3773 18.9011H29.3919C29.4652 18.8865 29.4945 18.8572 29.4945 18.8132C29.4945 18.7692 29.5238 18.7399 29.5678 18.7253L29.4799 18.4469C29.3919 18.4762 29.3626 18.5348 29.3626 18.5495C29.3626 18.5934 29.3333 18.6081 29.2894 18.6227L29.3773 18.9011ZM24.7179 21.8022H24.7326C24.8059 21.7876 24.8352 21.7583 24.8352 21.7143C24.8498 21.6703 24.8645 21.641 24.9084 21.6264L24.8205 21.348C24.7326 21.3773 24.7033 21.4359 24.7033 21.4506C24.7033 21.4945 24.674 21.5092 24.63 21.5238L24.7179 21.8022ZM33.3626 21.0696H33.3773C33.4505 21.055 33.4799 21.0257 33.4799 20.9817C33.4945 20.9377 33.5092 20.9084 33.5531 20.8938L33.4652 20.6154C33.3773 20.6447 33.348 20.7033 33.348 20.718C33.348 20.7619 33.3187 20.7766 33.2747 20.7912L33.3626 21.0696Z" fill="#FFC758"/>
<path d="M28.337 27.9414C28.337 27.9414 27.7363 27.0623 27.5018 26.1245C27.2967 25.3187 27.5018 24.5568 27.5018 24.5568C27.5018 24.5568 27.1062 25.9341 26.1538 26.6813C25.4945 27.2088 23.8681 27.6923 24.2491 28.3663C24.3077 28.2784 24.4689 28.1025 25.1282 27.9414C25.2015 27.9267 25.2894 27.9121 25.3773 27.8974V29.011H25.7289V27.8535C26.9451 27.7216 28.337 27.9414 28.337 27.9414Z" fill="#D4A11E"/>
<path d="M23.8388 25.6117C23.8388 25.6117 23.3993 25.3479 23.4579 24.4981C23.5165 23.619 23.956 23.238 23.956 23.2087L26.8718 22.2124C26.8718 22.2124 26.652 22.652 26.8132 23.3113C26.989 24.1025 27.5018 24.5567 27.5018 24.5567C27.5018 24.5567 26.0366 24.5714 24.718 25.0256C24.0733 25.2454 23.8388 25.6117 23.8388 25.6117Z" fill="#FFC758"/>
<path d="M25.5678 23.7802C26.4029 23.0915 26.8571 22.2124 26.8571 22.2124C26.8571 22.2124 26.7399 22.7692 26.8278 23.2673C26.989 24.1172 27.4872 24.5567 27.4872 24.5567C27.4872 24.5567 26.3004 24.5714 25.0256 24.9377C24.1758 25.1721 23.9121 25.5091 23.8388 25.6263C23.5604 24.9816 24.7179 24.4835 25.5678 23.7802Z" fill="#D4A11E"/>
<path d="M28.8938 28.5861C28.8938 28.5861 28.0879 27.9854 27.8974 26.8572C27.7363 25.9634 28.337 25.3187 28.337 25.3187L32.8938 23.7509C32.8938 23.7509 32.6447 24.7619 32.8791 25.729C33.1429 26.8132 34.1392 28.1612 34.1392 28.1612C34.1392 28.1612 32.2491 27.6191 30.6081 27.8242C29.0403 28.0293 28.8938 28.5861 28.8938 28.5861ZM27.9707 21.3627C27.9414 20.674 28.4249 20.1172 28.4396 20.0879L31.707 18.9451C31.707 18.9451 31.4872 19.4579 31.5458 19.8974C31.6483 20.7326 32.1172 21.1722 32.1172 21.1722C32.1172 21.1722 30.8278 21.0989 29.3187 21.6264C28.4835 21.9194 28.3956 22.315 28.3956 22.315C28.3956 22.315 28 22.2125 27.9707 21.3627Z" fill="#FFC758"/>
<path d="M30.5494 20.4835C31.1355 19.9707 31.707 18.9597 31.707 18.9597C31.707 18.9597 31.4872 19.4725 31.5458 19.9121C31.6483 20.7473 32.1172 21.1868 32.1172 21.1868C32.1172 21.1868 30.7253 21.1722 29.3919 21.641C28.8205 21.8462 28.4542 22.1539 28.4103 22.3297C28.2198 21.685 29.7436 21.1868 30.5494 20.4835Z" fill="#D4A11E"/>
<path d="M28.4396 25.1282C28.4396 25.1282 27.9707 24.586 27.8828 23.7362C27.7949 22.8571 28.3077 22.5055 28.3517 22.4761L32.1319 21.1721C32.1319 21.1721 32.0293 21.4505 32.1172 22.2124C32.2051 22.8571 32.8352 23.7362 32.8352 23.7362C32.8352 23.7362 30.8132 23.7948 29.5678 24.2783C28.7766 24.586 28.4396 25.1282 28.4396 25.1282Z" fill="#FFC758"/>
<path d="M30.9451 22.945C31.7656 22.2417 32.1319 21.1868 32.1319 21.1868C32.1319 21.1868 32.0293 21.7875 32.1319 22.2564C32.3223 23.0769 32.9084 23.7655 32.9084 23.7655C32.9084 23.7655 31.1502 23.7948 29.8755 24.2197C29.0403 24.4981 28.5275 24.9963 28.4542 25.1428C28.2637 24.4249 30.1245 23.6483 30.9451 22.945Z" fill="#D4A11E"/>
<path d="M34.2125 28.2345C34.2125 28.2345 33.1868 26.9012 32.8791 25.729C32.6886 24.9524 32.8352 24.0733 32.8938 23.7656C32.7766 24.1759 32.3663 25.5092 31.3553 26.4469C30.3883 27.3407 28.4835 27.7656 28.8938 28.6008C28.967 28.4689 29.1868 28.1466 29.9634 27.9561L29.9487 29.0257H30.315V27.8828C32 27.6191 34.2125 28.2345 34.2125 28.2345Z" fill="#D4A11E"/>
<path fill-rule="evenodd" clip-rule="evenodd" d="M35.9707 30.7399C36.2051 30.696 36.4396 30.6374 36.7912 30.5494C36.7766 30.5348 36.7473 30.5201 36.7326 30.5055C36.3516 30.0806 36.4103 29.6264 36.6447 29.4066C37.4945 28.6154 37.4799 28.0293 37.4799 28.0293C37.4799 28.0293 35.4139 28.4542 32.6886 28.6007C32.5128 28.6154 31.8828 28.8938 31.6923 28.8938C31.3114 28.9084 30.9304 28.9231 30.5348 28.9231C25.3919 28.967 23.956 28.6007 22.2711 28.293C20.5568 27.9707 19.8095 27.6337 19.8095 27.6337L19.7509 27.8095C19.7509 27.8095 21.0989 28.337 22.0659 28.8059C22.2711 28.9084 23.0769 30.1099 23.3407 30.5201H17.2308C16.8938 23.5165 18.2418 17.7875 18.2418 17.7875C18.2418 17.7875 22.9157 16.7912 29.9487 16.7912V16.0439C22.4908 16.0439 17.5238 17.0989 17.5238 17.0989C17.5238 17.0989 15.3553 24.7472 16.4982 33.8608C16.9817 37.6557 20.1172 44.7619 29.9194 48.0586L30.3443 47.4579L29.9194 46.8571C20.6886 43.7656 17.9927 37.5091 17.5238 33.9487C17.4212 33.1575 17.348 32.3663 17.2894 31.6044H29.9634V30.5348H23.4579C23.6044 30.0659 24.0586 29.9487 24.63 30.0806C25.2161 30.2271 25.8022 30.3736 26.359 30.3443C27.7509 30.2711 27.5458 29.9048 27.6777 29.9048C29.1136 29.9927 29.6557 30.3443 30.9011 30.315C32.044 30.3004 32.4396 29.9927 32.5421 29.9927C33.9341 29.978 34.4615 30.6227 35.8535 30.7399H35.9707Z" fill="#FFC758"/>
<path fill-rule="evenodd" clip-rule="evenodd" d="M42.359 17.0989C42.359 17.0989 37.4066 16.0439 29.9487 16.0439V16.7912C36.9817 16.7912 41.641 17.7875 41.641 17.7875C41.641 17.7875 43.0037 23.5165 42.652 30.5201H36.5275C36.044 30.0513 36.3223 29.4359 36.4835 29.2894C37.2015 28.6447 37.2015 28.2051 37.2015 28.2051C37.2015 28.2051 35.5458 28.6154 32.8205 28.7326C32.6447 28.7326 31.8828 29.0842 31.6923 29.0842C31.3114 29.0989 30.7839 29.1135 30.3883 29.1135C26.8425 29.1135 25.0989 29.0403 22.022 28.3809C22.0806 28.4542 22.1099 28.4835 22.1685 28.5714C22.1832 28.6007 23.5165 28.9377 23.5311 28.967C23.7363 29.2454 24 29.4359 24.3223 29.6117C24.8205 29.8754 25.5531 30.0952 26.1538 30.1392C27.5458 30.2271 27.2821 29.6996 27.4139 29.6996C28.8352 29.6703 29.7582 30.1831 31.0037 30.1685C32.1465 30.1538 32.1758 29.7875 32.293 29.7875C33.4212 29.7289 34.5641 30.2124 35.5458 30.5348H29.9487V31.6044H42.5788C42.5201 32.3809 42.4469 33.1575 42.3443 33.9487C41.8755 37.5238 39.1795 43.7656 29.9487 46.8571V48.0586C39.7509 44.7619 42.9011 37.6703 43.37 33.8608C44.5275 24.7472 42.359 17.0989 42.359 17.0989Z" fill="#D4A11E"/>
<path d="M7.06227 20.3956L7.57509 19.4139L9.89011 19.2527L8.71795 17.2454L9.23077 16.2784L13.348 18.4469L12.8791 19.3406L10.1832 17.9341L11.3407 20.0146L11.326 20.0293L8.98168 20.2637L11.6484 21.6703L11.1795 22.5641L7.06227 20.3956ZM11.7656 13.0696L12.4103 12.3809L17.1868 14.1392L16.4542 14.9157L15.3993 14.5055L14.0513 15.9414L14.5201 16.967L13.8022 17.7289L11.7656 13.0696ZM14.5055 14.1685L12.9817 13.5824L13.6557 15.0623L14.5055 14.1685ZM15.4579 9.68497L16.2637 9.20145L19.619 10.5201L18.1392 8.07325L19.0037 7.54578L21.4066 11.5165L20.6593 11.9707L17.2015 10.608L18.7399 13.1428L17.8755 13.6703L15.4579 9.68497ZM21.7143 8.87911C21.348 7.58973 21.9927 6.27105 23.37 5.87545C24.2051 5.62636 24.8059 5.77288 25.3333 6.05127L24.9084 6.9597C24.4689 6.73992 24.0733 6.652 23.619 6.78387C22.8718 7.00365 22.5055 7.78021 22.7253 8.55677V8.57142C22.9451 9.33332 23.663 9.81684 24.4249 9.59706C24.9377 9.45054 25.1868 9.1575 25.4506 8.73259L26.2564 9.1868C25.9341 9.81684 25.5092 10.2711 24.6593 10.5201C23.3553 10.9011 22.0806 10.1685 21.7143 8.87911ZM27.2967 5.14285L28.3077 5.11354L28.3663 6.9597L30.2418 6.91574L30.1978 5.06959L31.2234 5.04028L31.3407 9.69962L30.315 9.72893L30.2711 7.85347L28.381 7.91208L28.4396 9.77288L27.4139 9.80219L27.2967 5.14285ZM37.2454 10.3297L38.0952 9.9194C38.3297 10.4029 38.6374 10.7985 39.1209 11.0183C39.5018 11.1941 39.7949 11.1502 39.9121 10.9011V10.8864C40.0293 10.652 39.9267 10.4615 39.3114 9.96336C38.5641 9.34798 38.1245 8.86446 38.5055 8.02929V8.01464C38.8571 7.25274 39.707 7.03296 40.5714 7.42856C41.1868 7.70695 41.6264 8.14651 41.8901 8.68863L41.0843 9.17215C40.8352 8.73259 40.5275 8.41025 40.1758 8.24907C39.8242 8.0879 39.5604 8.16116 39.4579 8.36629V8.38094C39.326 8.65933 39.4725 8.83515 40.1172 9.36263C40.8645 9.97801 41.2161 10.5201 40.8645 11.2527V11.2674C40.4835 12.1026 39.6191 12.2784 38.7106 11.8681C38.0952 11.5458 37.5531 11.0183 37.2454 10.3297ZM44.044 10.608L42.9158 9.74358L43.4872 8.99633L46.5495 11.326L45.978 12.0879L44.8498 11.2234L42.6081 14.1685L41.7875 13.5531L44.044 10.608ZM51.3993 17.2161L52.3516 19.1209C52.6154 19.6483 52.674 20.1319 52.5421 20.5421C52.4249 20.8938 52.1612 21.1721 51.7656 21.3773H51.7509C51.0769 21.7143 50.4762 21.5678 50.0073 21.1282L49.0256 22.8864L48.4835 21.8168L49.3626 20.2491L48.9963 19.5311L47.663 20.2051L47.2088 19.2967L51.3993 17.2161ZM50.3004 20.0732C50.5201 20.5128 50.8864 20.6593 51.2381 20.4835H51.2527C51.6483 20.293 51.707 19.9121 51.4872 19.4725L51.033 18.5641L49.8462 19.1648L50.3004 20.0732ZM34.1392 8.26373L35.8535 8.63003L36.337 7.80951L34.3443 7.36995L34.5348 6.44688L36.967 6.97435L37.1722 6.09523L33.7289 5.34798L32.7473 9.8901L36.2198 10.652L36.4103 9.75823L33.9341 9.21611L34.1392 8.26373ZM47.956 12.7179L44.381 15.7069L46.6667 18.4176L47.3553 17.8315L45.7436 15.8974L46.4908 15.2674L47.6337 16.63L48.5568 16.3223L47.1941 14.6813L47.9121 14.0806L49.5092 15.9853L50.2125 15.3993L47.956 12.7179ZM22.1099 52.3956C22.1099 51.033 23.1209 49.9341 24.5861 49.9341C25.4799 49.9341 26.0073 50.2271 26.4615 50.6667L25.8022 51.4286C25.4359 51.0916 25.0696 50.9011 24.5861 50.9011C23.7802 50.9011 23.2088 51.5604 23.2088 52.3809V52.3956C23.2088 53.2015 23.7656 53.8901 24.5861 53.8901C25.1282 53.8901 25.4652 53.6703 25.8315 53.3333L26.4908 54.0073C26.0073 54.5348 25.4652 54.8571 24.5421 54.8571C23.1502 54.8278 22.1099 53.7436 22.1099 52.3956ZM27.5018 50.0073H28.5421V54.7399H27.5018V50.0073ZM30.9597 50.9743H29.5238V50.0073H33.4506V50.9743H32.0147V54.7546H30.9744V50.9743H30.9597ZM35.707 52.8791L33.8901 50.0073H35.1062L36.2344 51.9121L37.3773 50.0073H38.5641L36.7473 52.8498V54.7399H35.707V52.8791Z" fill="#00285E"/>
</g>
<defs>
<clipPath id="clip0_19_418">
<rect width="60" height="60" fill="white"/>
</clipPath>
</defs>
</svg>
