<svg width="60" height="50" viewBox="0 0 60 50" fill="none" xmlns="http://www.w3.org/2000/svg">
<g clip-path="url(#clip0_19_386)">
<path fill-rule="evenodd" clip-rule="evenodd" d="M8.66833 0.783813V33.2523C8.66833 35.8076 9.00163 36.8075 9.77932 38.1684L9.83487 38.2518L9.89042 38.3351C14.4732 45.1676 22.0557 49.2505 30.2214 49.2505C38.3594 49.2505 45.9696 45.1676 50.5524 38.3351L50.608 38.2518L50.6635 38.1684C51.4412 36.8075 51.7745 35.8076 51.7745 33.2523V0.783813H8.66833Z" fill="white"/>
<path fill-rule="evenodd" clip-rule="evenodd" d="M49.1359 27.6697V33.2246C49.1359 35.4466 48.886 35.9465 48.3582 36.8631C44.4142 42.7513 37.7483 46.612 30.1937 46.612C22.639 46.612 15.9731 42.7513 12.0291 36.8631C11.5013 35.9743 11.2514 35.4466 11.2514 33.2246V3.36691H49.1359V27.6697ZM50.3025 20.3372V2.22815H10.0848V33.2524C10.0848 35.6132 10.3626 36.3354 11.0014 37.4741L11.0292 37.5019L11.0569 37.5297C15.362 43.9734 22.5279 47.8063 30.1937 47.8063C37.8594 47.8063 45.0253 43.9734 49.3304 37.5297L49.3581 37.5019L49.3859 37.4741C50.0247 36.3631 50.3025 35.6132 50.3025 33.2524V20.3372Z" fill="#001A4B"/>
<path fill-rule="evenodd" clip-rule="evenodd" d="M50.5802 29.6972V33.2524C50.5802 35.6688 50.2747 36.4465 49.6081 37.613L49.5803 37.6685L49.5526 37.6963C45.1919 44.1956 37.9428 48.084 30.1937 48.084C22.4168 48.084 15.1954 44.1956 10.8348 37.6963L10.807 37.6685L10.7792 37.613C10.1126 36.4465 9.8071 35.6688 9.8071 33.2524V1.9504H50.5802V29.6972ZM51.219 20.5316V1.28381H9.16829V33.2246C9.16829 35.7799 9.50158 36.6409 10.2237 37.8907L10.2515 37.9463L10.2793 38.0018C14.751 44.6955 22.1946 48.6673 30.1659 48.6673C38.1372 48.6673 45.5808 44.6677 50.0525 38.0018L50.0803 37.9463L50.108 37.8907C50.8302 36.6409 51.1635 35.7799 51.1635 33.2246V30.0861L51.219 20.5316Z" fill="#0F2045"/>
<path fill-rule="evenodd" clip-rule="evenodd" d="M26.5258 11.7523C25.8681 11.7523 25.3357 11.1729 25.3357 10.4682C25.3357 9.76355 25.8681 9.18416 26.5258 9.18416C27.1835 9.18416 27.7159 9.76355 27.7159 10.4682C27.7159 11.1729 27.1835 11.7523 26.5258 11.7523ZM27.7002 4.4707V8.46383C27.2618 8.04103 26.698 7.79048 26.0716 7.79048C24.7249 7.79048 23.6288 8.96493 23.6288 10.4212C23.6288 11.8776 24.7249 13.052 26.056 13.052C26.698 13.052 27.2618 12.7858 27.7002 12.3473V12.9894H29.3131V4.4707H27.7002ZM34.4337 11.5487H32.9304V6.17757H33.9796C34.4337 6.17757 34.8095 6.56905 34.8095 7.05449C34.8095 7.53993 34.4337 7.93141 33.9796 7.93141H33.4315V9.41905H34.4337C34.9975 9.41905 35.4203 9.88883 35.4203 10.4839C35.3889 11.0946 35.0444 11.5017 34.4337 11.5487ZM35.7491 8.47949C36.1719 8.05669 36.4381 7.49295 36.4381 6.86658C36.4381 6.30284 36.2345 5.78609 35.8744 5.37894C35.4986 4.94048 34.8409 4.75257 33.9483 4.75257H31.2705V12.9894H34.7312C36.0623 12.9737 37.1271 11.9089 37.1271 10.6092C37.1271 9.6696 36.7983 8.99625 35.7491 8.47949ZM43.7354 13.005H45.3013V4.549H43.7354V13.005ZM41.1046 10.9067C41.1046 11.4078 40.6974 11.7993 40.1807 11.7993C39.6796 11.7993 39.2568 11.3921 39.2568 10.9067V7.93141H37.6595V11.2199C37.6595 12.3317 38.787 13.2399 40.165 13.2399C41.5587 13.2399 42.6862 12.3317 42.6862 11.2199V7.93141H41.1046V10.9067ZM17.7879 7.17977C17.7879 5.83306 16.7387 4.73691 15.4233 4.73691H12.4167V12.9737H14.0923V6.16191L15.0945 6.14625C15.7052 6.14625 16.175 6.63169 16.175 7.22674C16.175 7.8218 15.6739 8.30724 15.0631 8.30724L14.6717 8.3229V10.2803L16.3472 12.9737H18.3046L16.0027 9.52866C17.0206 9.27811 17.7879 8.3229 17.7879 7.17977ZM19.62 9.81053C19.62 9.26245 20.0585 8.80833 20.6065 8.80833C21.1546 8.80833 21.5931 9.26245 21.5931 9.81053H19.62ZM20.5909 7.64954C22.0629 7.64954 23.2216 8.62042 23.1903 10.4056C23.1903 10.5309 23.1903 10.6405 23.1747 10.7501H19.62C19.62 10.7814 19.6357 10.7657 19.6357 10.8127C19.6357 11.3765 20.1211 11.8462 20.7318 11.8462C21.1859 11.8462 21.5774 11.5957 21.734 11.2199L23.0337 11.8306C22.5796 12.6449 21.7027 13.1616 20.5909 13.1616C19.1189 13.1616 17.9288 11.9245 17.9288 10.4056C17.9288 8.88663 19.1189 7.64954 20.5909 7.64954ZM46.3974 13.005H47.9634V4.549H46.3974V13.005ZM46.3974 4.53334V12.9894V4.53334Z" fill="#D71E3D"/>
<path fill-rule="evenodd" clip-rule="evenodd" d="M41.3868 23.7534C41.3868 29.9749 36.3596 35.0021 30.1381 35.0021C23.9166 35.0021 18.8894 29.9749 18.8894 23.7534C18.8894 17.5318 23.9166 12.5046 30.1381 12.5046C36.3596 12.5046 41.3868 17.5318 41.3868 23.7534Z" fill="#FDCC09"/>
<path fill-rule="evenodd" clip-rule="evenodd" d="M39.9148 27.3918C39.8037 27.1696 39.4148 26.6975 39.4704 26.3919C39.7481 26.4197 40.1925 26.4197 40.3592 26.4475C40.3036 26.5308 39.9703 27.2807 39.9148 27.3918ZM59.968 30.7525C59.9402 30.6692 59.9125 30.5581 59.8847 30.5026L59.8569 30.447C59.8292 30.3915 59.8014 30.3359 59.8014 30.2804C59.8014 30.2526 59.7736 30.2248 59.7736 30.1971V30.1415C59.8014 29.836 59.7181 29.6693 59.607 29.4471C59.4959 29.2805 59.3848 29.2249 59.2737 29.1972C59.2459 29.2527 59.1903 29.3083 59.107 29.3083H59.0792C58.9959 29.2805 58.9404 29.1972 58.9404 29.1138V29.0305C58.9404 28.9472 58.9126 28.8639 58.8848 28.7806C58.7737 28.5861 57.996 27.9473 57.7183 27.9473C57.4683 27.9473 57.2183 28.0862 57.0517 28.3084C57.0239 28.3362 56.9684 28.3639 56.9128 28.3639H56.885C56.8295 28.3639 56.7739 28.3362 56.7462 28.2806C56.7184 28.2251 56.6906 28.1695 56.6906 28.114C56.6351 27.9751 56.6073 27.8362 56.5795 27.6973L56.5518 27.5862C56.4684 27.2252 56.3573 26.8641 55.8852 26.7252C55.8574 26.7252 55.8018 26.6975 55.7463 26.6975H55.5241C55.4408 26.6975 55.3297 26.6975 55.2186 26.6697C55.0241 26.6419 54.8853 26.5864 54.8853 26.3642V26.3086L54.9408 26.1697C54.9686 26.0586 55.0241 25.892 55.0797 25.6976C55.163 25.3087 55.163 24.9754 55.1075 24.6699C55.1075 24.6144 55.1075 24.5588 55.1352 24.5033C55.163 24.4755 55.2186 24.4477 55.2463 24.4477H55.2741C55.4685 24.4755 55.6352 24.4755 55.663 24.4755C56.6906 24.4755 58.3015 23.8089 58.3015 22.0313C58.3015 21.0037 57.4683 20.0316 56.7739 19.3927C56.7184 19.3372 56.7184 19.2816 56.7184 19.2261C56.7462 19.1705 56.7739 19.115 56.8295 19.115C57.8294 18.865 58.3571 18.1984 58.3571 17.2541V17.1985C58.3571 17.0597 58.3571 16.893 58.3293 16.6986C58.3015 16.4486 58.1904 16.2264 58.0516 16.0042C58.0238 15.9765 58.0238 15.9487 57.9683 15.9487H57.9405C57.9127 15.9487 57.8572 15.9765 57.8294 16.0042C57.7461 16.0598 57.6072 16.1709 57.4961 16.282C57.385 16.3931 57.2183 16.4486 57.0239 16.532C56.9128 16.5875 56.7739 16.6153 56.6351 16.6431C56.5518 16.6708 56.4962 16.6708 56.4129 16.6986C55.9407 16.8375 55.413 17.0319 54.8575 17.5318C54.6075 17.754 54.4131 18.1429 54.3853 18.504C54.3576 18.8095 54.4964 19.115 54.7464 19.4761C54.9686 19.7816 55.2463 20.0593 55.5519 20.3371L55.663 20.4482C55.7741 20.5593 55.8852 20.6704 55.9963 20.7537C56.1629 20.9203 56.274 21.0314 56.3573 21.1703C56.6073 21.4758 56.7184 21.698 56.7184 21.9202C56.7184 22.3924 56.3851 22.7257 55.8574 22.7257C55.2741 22.7257 54.8297 22.5035 54.2187 22.0869C54.1354 22.0313 54.0243 21.948 53.9409 21.8925C53.7465 21.7536 53.5243 21.6147 53.3021 21.4758C52.8855 21.1981 52.4689 21.0037 52.0523 20.8092C51.8301 20.6981 51.6079 20.6426 51.3579 20.5593C51.1913 20.5037 50.9968 20.4759 50.858 20.4482L50.7746 20.4204C50.3858 20.3371 50.0803 20.2537 49.747 20.0316C49.6636 19.976 49.5525 19.8927 49.4414 19.8371C49.2748 19.726 49.0804 19.5872 48.9137 19.4761C48.5527 19.2539 48.2749 19.115 48.0249 19.0317C47.9416 19.0039 47.8583 18.9761 47.7472 18.9761C47.6917 18.9761 47.6639 18.9761 47.6083 18.9483L47.4972 18.9206C47.3306 18.8928 47.1917 18.865 47.0251 18.7817C46.9417 18.7261 46.8306 18.6706 46.7473 18.5873C46.664 18.5317 46.6084 18.4762 46.5251 18.4206L46.4696 18.3929C46.3029 18.254 46.0807 18.1151 45.7752 17.9485C45.303 17.6985 44.8586 17.5874 44.4698 17.4763L44.3865 17.4485C44.2198 17.4207 44.1087 17.393 43.9976 17.3374C43.9421 17.3096 43.8865 17.2819 43.831 17.2819C43.8032 17.2819 43.7754 17.2541 43.7754 17.2541L43.7477 17.2263C42.7755 15.9765 41.5812 15.8931 41.2479 15.8931H41.0257C40.6369 15.9487 40.1647 16.282 39.7481 16.6153C39.6092 16.7264 39.4426 16.8652 39.3037 17.0041C38.9982 17.2819 38.6649 17.5318 38.3594 17.7818C36.7207 18.9483 36.1374 19.4205 35.3597 20.2537C34.3043 21.3925 33.9988 22.8368 33.6933 24.1144L33.6655 24.1977C33.5266 24.8088 33.3877 25.4476 33.1655 26.0586C32.9156 26.753 32.61 27.2807 32.1934 27.6973C31.999 27.8918 31.8324 28.0584 31.6935 28.1695C31.6102 28.2528 31.5268 28.3084 31.4713 28.3362L31.4157 28.3639C31.2491 28.475 31.1658 28.6417 31.2213 28.8083C31.2769 29.0027 31.5546 29.2249 31.999 29.2249C32.0546 29.2249 32.1101 29.2527 32.1379 29.2805C32.1657 29.3083 32.1934 29.3638 32.1656 29.4194C32.1379 29.5027 32.1656 29.5582 32.2212 29.6138C32.3323 29.7804 32.6378 29.8638 32.8045 29.8638H32.8878C33.6655 29.8638 34.3321 29.586 34.8876 29.0027C34.9153 28.975 34.9709 28.9472 34.9987 28.9472C35.0264 28.9472 35.082 28.975 35.1098 29.0027C35.332 29.1972 35.6097 29.3083 35.9708 29.3083H35.9985C36.1652 29.3083 36.3318 29.2805 36.4707 29.2805C36.554 29.2805 36.6096 29.2527 36.6929 29.2527H36.8873C36.9707 29.2527 37.1095 29.2805 37.2484 29.336C37.3595 29.3638 37.4706 29.4194 37.6095 29.4749L37.7206 29.5305C37.9705 29.6138 38.3316 29.7527 38.5816 29.7527H38.6371C39.2482 29.7249 39.4704 29.2527 39.5537 28.975C39.5815 28.8916 39.637 28.8639 39.7203 28.8639C39.8037 28.8639 39.8592 28.9194 39.887 29.0027C39.9148 29.0583 39.9148 29.1416 39.9425 29.1972C40.0259 29.5305 40.1647 29.7249 40.3592 29.8915C40.4147 29.9471 40.498 29.9749 40.6091 30.0026C40.6925 30.0304 40.8313 30.0304 41.0257 30.0304C41.0535 30.0304 41.1091 30.0304 41.1368 30.0582L41.2202 30.1415L41.3313 30.2526C41.359 30.2804 41.4146 30.3359 41.4701 30.3359C42.3312 30.6414 43.4421 30.947 44.0254 30.947H44.0532C44.8309 30.947 45.0808 30.2248 45.1642 29.8915C45.1919 29.836 45.2197 29.7804 45.303 29.7527C46.0252 29.6138 46.414 28.5306 46.414 28.3639C46.414 28.0306 46.2751 27.8918 45.9419 27.864H44.5531C44.4976 27.864 44.442 27.8362 44.4142 27.7807C44.3587 27.6973 44.3309 27.6696 44.2476 27.6696C44.1921 27.6418 44.1365 27.614 44.1087 27.5307C44.081 27.4751 44.1087 27.3918 44.1643 27.364C44.1921 27.3363 44.2198 27.3085 44.2476 27.3085C44.2754 27.2807 44.3309 27.2529 44.3587 27.2529C44.5253 27.2529 44.8586 27.2807 45.1642 27.2807H45.553C45.803 27.2807 46.0252 27.2529 46.2474 27.2252C46.5807 27.1974 46.9417 27.1419 47.4972 27.1419L48.636 27.2529C48.886 27.2529 49.1082 27.2252 49.3026 27.1696H49.3581C49.3859 27.1696 49.4137 27.1696 49.4414 27.1974C49.497 27.2252 49.5248 27.2807 49.5248 27.3085C49.6081 27.8918 49.8025 28.4195 50.0803 28.8083C50.1636 28.9194 50.2469 29.0027 50.3858 29.0861C50.4413 29.1416 50.5247 29.1694 50.5802 29.2249C50.608 29.2527 50.6635 29.2805 50.6913 29.3083C50.9968 29.5027 51.3857 29.7527 51.8578 29.7527C51.9967 29.7527 52.1078 29.7249 52.2467 29.6971C52.3856 29.6693 52.5244 29.6416 52.6911 29.6416H52.9133C53.1077 29.6693 53.2743 29.6971 53.4132 29.7527H53.441C53.6632 29.8082 53.8854 29.8915 54.0798 30.0304C54.2465 30.1415 54.3853 30.2526 54.552 30.3637L54.5798 30.3915C54.8575 30.6137 55.163 30.8359 55.5519 30.8359H55.6907C55.7185 30.8359 55.7463 30.8081 55.7741 30.8081C55.8296 30.7803 55.8852 30.7525 55.9685 30.7248C56.024 30.697 56.1074 30.6692 56.1907 30.6692H56.2185C56.274 30.6692 56.3296 30.697 56.3573 30.7525C56.3851 30.7803 56.4129 30.8081 56.4129 30.8636C56.4407 30.9192 56.4962 31.0025 56.5518 31.0581C56.7184 31.2525 56.9961 31.5302 57.6627 31.558H57.8294C58.1627 31.558 58.3849 31.5302 58.496 31.5025H58.5237C58.5515 31.5025 58.5793 31.5025 58.6071 31.5302C58.6904 31.5858 58.7459 31.6136 58.8293 31.6136C58.9959 31.6136 59.2737 31.558 59.4959 31.4747C59.6347 31.4191 59.7181 31.3636 59.8014 31.308C59.9125 31.2247 59.968 31.1414 59.968 31.0581C59.9958 30.9192 59.9958 30.8359 59.968 30.7525ZM20.9447 26.7252C20.8336 26.8641 20.667 26.9197 20.5003 27.1974C20.1948 27.0863 20.1392 26.6697 20.0559 26.4753C20.3059 26.4197 20.9169 26.3086 21.2225 26.2808C21.1114 26.4197 21.0003 26.5308 20.9447 26.7252ZM28.4716 28.0306C28.1661 27.864 27.9717 27.5862 27.8328 27.3363C27.7773 27.2529 27.7217 27.1418 27.6662 27.0585L27.6106 26.9474C27.5551 26.8363 27.4717 26.6975 27.3884 26.5864C27.3606 26.5308 27.3051 26.503 27.2773 26.4475L27.1385 26.3086C27.1107 26.2531 27.0551 26.2253 27.0273 26.1975C26.9996 26.1697 26.9718 26.1142 26.9718 26.0864C26.4163 24.6421 26.2774 23.8367 26.083 22.3924C25.9719 21.6425 25.5275 21.0592 24.8054 20.1704C24.7221 20.0593 24.611 19.9205 24.4999 19.7816C24.4165 19.6983 24.361 19.5872 24.2777 19.4761C24.0277 19.1705 23.8333 18.9483 23.6944 18.8095C23.4444 18.5873 23.1945 18.3929 23 18.2262C22.6945 17.9762 22.4445 17.754 22.2223 17.5596C21.778 17.1985 21.4447 16.9486 21.0558 16.6708C20.5003 16.3098 19.9448 16.1153 19.3338 16.1153C18.7227 16.1153 18.2784 16.3098 18.1117 16.4209C17.584 16.7819 17.1951 17.0041 16.7507 17.1708C16.4452 17.3096 16.1119 17.4207 15.6953 17.5596C15.5564 17.6152 15.4176 17.6429 15.2509 17.6985C14.7788 17.8651 14.4455 18.1429 14.1955 18.3651L14.0288 18.5317L13.8622 18.6984C13.7511 18.8095 13.6678 18.8372 13.6122 18.865C13.5289 18.8928 13.4178 18.9206 13.2511 18.9206C13.1678 18.9206 13.0845 18.9206 12.9734 18.9483H12.779C12.2235 18.9761 11.8069 19.2816 11.5014 19.5038C11.3625 19.6149 11.2236 19.7538 11.0847 19.8649L11.0292 19.9205C10.8625 20.0593 10.7514 20.1704 10.6403 20.2537C10.2515 20.5037 9.89042 20.5315 9.4738 20.587C9.27938 20.6148 9.05718 20.6148 8.83499 20.6704C8.55724 20.7259 8.30727 20.8092 8.0573 20.9203C7.77955 21.0592 7.47403 21.2259 7.11296 21.4758C6.94632 21.5869 6.80744 21.698 6.6408 21.8091C6.50192 21.9202 6.36305 22.0035 6.22418 22.0869C5.58536 22.5313 5.08542 22.809 4.50215 22.809C3.94666 22.809 3.55781 22.4757 3.50227 21.9758C3.44672 21.5314 3.66891 21.087 4.14108 20.7259L4.39105 20.5315C4.58547 20.3926 4.75212 20.226 4.91877 20.1149C5.19652 19.8927 5.36316 19.6983 5.50204 19.5316C5.83533 19.0872 5.94643 18.615 5.77978 18.0318C5.64091 17.5041 5.22429 17.143 4.52993 16.9208C4.27995 16.8375 4.02998 16.8097 3.78001 16.7542H3.69669C3.61336 16.7542 3.55781 16.7264 3.50227 16.7264C3.41894 16.6986 3.36339 16.6986 3.33562 16.6986C2.94677 16.532 2.11354 15.9765 1.94689 15.8654L1.89134 15.8098L1.83579 15.8654C1.69692 16.0876 1.55804 16.2542 1.47472 17.0319C1.36362 17.8651 2.05799 18.8928 3.25229 19.0872C3.30784 19.0872 3.36339 19.1428 3.39117 19.1983C3.41894 19.2539 3.39117 19.3372 3.33562 19.365C2.08576 20.3648 1.80801 20.7815 1.72469 21.8925C1.69692 22.5868 1.91911 23.2534 2.39128 23.7533C2.89122 24.2811 3.64114 24.5866 4.50215 24.5866C4.72435 24.5866 4.97432 24.5588 5.25206 24.531H5.27984C5.30761 24.531 5.36316 24.531 5.39094 24.5588C5.41871 24.5866 5.44649 24.6421 5.44649 24.6699C5.50204 25.4476 5.64091 26.0864 5.83533 26.3642C5.89088 26.4197 5.86311 26.5308 5.80756 26.5864C5.75201 26.6419 5.66868 26.6975 5.55759 26.7252C5.27984 26.8363 4.891 26.8919 4.47438 26.8919C4.2244 26.8919 4.02998 27.0585 3.89111 27.4474C3.83556 27.5585 3.80779 27.6973 3.75224 27.8362V27.864C3.72446 27.9195 3.72446 27.9751 3.69669 28.0306C3.66891 28.0306 3.64114 28.0862 3.64114 28.114C3.58559 28.1973 3.50227 28.2806 3.41894 28.3917C3.39117 28.4195 3.33562 28.4473 3.30784 28.4473H3.28007C3.22452 28.4473 3.19674 28.4195 3.16897 28.3639C3.05787 28.1417 2.83568 28.0029 2.5857 27.9473H2.55793C2.16908 27.9473 1.50249 28.2806 1.25252 28.8917C1.19697 28.9194 1.14142 28.975 1.08587 28.975H1.0581C0.75258 29.0027 0.558158 29.1416 0.447059 29.4194C0.39151 29.5305 0.363736 29.6693 0.363736 29.7804L0.308186 29.8638C0.280412 29.9471 0.280411 30.0582 0.252637 30.1415C0.224862 30.2248 0.197088 30.2804 0.169313 30.3637C0.141539 30.3915 0.141538 30.4193 0.113764 30.4748C0.0859892 30.5026 0.0859896 30.5304 0.0859896 30.5304C0.0304404 30.6692 -0.025109 30.7803 0.0304402 31.0025C0.0582148 31.1136 0.141539 31.1969 0.280412 31.2525C0.39151 31.308 0.502608 31.3636 0.669256 31.3914C0.947002 31.4469 1.19697 31.4747 1.25252 31.4747C1.2803 31.4747 1.33585 31.4747 1.36362 31.4469C1.36362 31.4469 1.3914 31.4191 1.41917 31.4191C1.44694 31.3914 1.50249 31.3914 1.53027 31.3914H1.55804L1.69692 31.4191C1.80801 31.4469 1.91911 31.4747 2.05799 31.5025H2.08576C2.19686 31.5302 2.33573 31.558 2.41906 31.558C2.4746 31.558 2.53015 31.5858 2.55793 31.5858H2.64125C3.16897 31.558 3.39117 31.3636 3.55781 31.1414C3.61336 31.0858 3.64114 31.0303 3.66891 30.9747L3.72446 30.8636L3.78001 30.7803C3.83556 30.697 3.86333 30.6414 3.91888 30.5581C3.94666 30.5026 4.00221 30.4748 4.05776 30.4748H4.11331C4.16886 30.5026 4.2244 30.5026 4.27995 30.5026C4.36328 30.5581 4.47438 30.5859 4.52993 30.5859H4.64102C5.14097 30.5859 5.52981 30.3082 5.83533 30.0304L5.94643 29.9471C6.00198 29.9193 6.02975 29.8638 6.0853 29.836C6.14085 29.7804 6.22418 29.7249 6.3075 29.6693C6.44637 29.5582 6.58525 29.5305 6.72412 29.5305H6.75189C6.86299 29.5305 7.33516 29.5582 8.11285 29.6971H8.22395C8.39059 29.6971 8.61279 29.6416 8.89054 29.5305C9.08496 29.4471 9.30716 29.336 9.52935 29.1972L9.696 29.1138H9.72378C9.77933 29.0861 9.86265 29.0583 9.9182 29.0305C10.0571 28.975 10.2237 28.8639 10.3904 28.6695C10.4737 28.5584 10.5848 28.3362 10.7237 28.0862L10.8625 27.8362C10.9459 27.6973 11.0014 27.5307 11.0847 27.3918C11.1125 27.3363 11.1681 27.3085 11.2236 27.3085H11.2792C11.5291 27.3085 11.8069 27.2807 12.0568 27.2252C12.1679 27.1974 12.279 27.1974 12.3901 27.1696C12.6123 27.1419 12.8068 27.1141 12.9734 27.0863C13.0012 27.0863 13.1123 27.0863 13.2511 27.1141L13.5567 27.1419C13.9455 27.1696 14.251 27.1696 14.5288 27.1696H14.9454C15.1398 27.1419 15.3342 27.1141 15.5009 27.0863C15.5564 27.0863 15.5842 27.0585 15.6398 27.0308C15.6675 27.0308 15.6953 27.003 15.6953 27.003C15.7509 27.003 15.7786 27.0308 15.8064 27.0585C15.8897 27.1418 15.9731 27.2252 16.0842 27.3085C16.1397 27.364 16.1675 27.4196 16.1397 27.5029C16.1119 27.5585 16.0564 27.614 16.0008 27.614H15.8897C15.7786 27.6418 15.5842 27.6696 15.4731 27.8084C15.4453 27.864 15.3898 27.864 15.3342 27.864C15.3065 27.864 15.2787 27.864 15.2787 27.8362C15.2509 27.8362 15.2231 27.8084 15.1954 27.8084C15.1398 27.7807 15.0843 27.7807 15.0565 27.7807H14.8343C14.6677 27.7807 14.3066 27.7807 14.0011 27.8362C13.8066 27.864 13.6678 27.9195 13.5567 27.9751C13.3622 27.9751 13.2234 28.0862 13.2511 28.2528C13.2789 28.5861 13.7233 29.4471 14.0288 29.7527C14.0844 29.8082 14.2788 29.8638 14.501 29.8638H14.5843C14.6399 29.8638 14.6954 29.8915 14.7232 29.9471C15.0287 30.5581 15.5842 30.9747 16.0842 30.9747H16.1119C16.5841 30.947 17.8617 30.5026 18.7505 30.086H18.7783C18.8061 30.086 18.8338 30.086 18.8616 30.0582C18.9172 30.0582 18.9727 30.0304 19.0283 30.0304H19.1116C19.306 30.0026 19.5282 29.9749 19.6949 29.8915C19.8337 29.8082 20.0559 29.5305 20.2503 29.1694C20.2781 29.1138 20.3337 29.0861 20.3892 29.0861H20.417C20.4725 29.0861 20.5559 29.1416 20.5559 29.1972C20.5836 29.2805 20.6114 29.336 20.6392 29.3916C20.7781 29.6693 21.0558 29.836 21.4447 29.836H21.5002C21.7502 29.836 22.0557 29.7249 22.3057 29.6416L22.4445 29.586C22.6667 29.5027 22.8612 29.4471 23.0556 29.4194C23.1111 29.4194 23.1945 29.3916 23.2778 29.3916H23.4167C23.5 29.3916 23.5833 29.3916 23.6666 29.4194H24.0832C24.3054 29.4194 24.4999 29.3916 24.6665 29.3083C24.9165 29.1972 25.0831 29.0861 25.222 28.975L25.2775 28.9472C25.3053 28.9194 25.3331 28.9194 25.3886 28.9194C25.4164 28.9194 25.472 28.9472 25.4997 28.975C25.833 29.2805 26.5552 29.7804 27.6106 29.7804H27.7217C27.9717 29.7804 28.1661 29.6971 28.2772 29.5582C28.3605 29.4749 28.3605 29.336 28.3328 29.2249C28.3328 29.1694 28.3328 29.1416 28.3605 29.0861C28.3883 29.0583 28.4161 29.0305 28.4716 29.0027C28.6383 28.975 28.7771 28.9194 28.8882 28.8083C28.9716 28.725 29.0549 28.6139 29.0549 28.5028C29.0549 28.4195 29.0271 28.3639 28.9716 28.3362C28.8605 28.2528 28.8049 28.2251 28.4716 28.0306Z" fill="white"/>
<path fill-rule="evenodd" clip-rule="evenodd" d="M24.4721 17.0042C24.4721 13.8935 26.9996 11.366 30.1103 11.366C33.2211 11.366 35.7486 13.8935 35.7486 17.0042C35.7486 20.115 33.2211 22.6425 30.1103 22.6425C26.9996 22.6425 24.4721 20.115 24.4721 17.0042Z" fill="white"/>
<path fill-rule="evenodd" clip-rule="evenodd" d="M25.8608 20.0594C27.4995 21.2537 29.8326 21.4481 31.6379 20.4482C33.6099 19.4205 34.8042 17.3375 34.6098 15.0599C34.582 14.7266 34.5265 14.4211 34.4432 14.1156C34.9987 14.9488 35.3042 15.9487 35.3042 17.0042C35.3042 19.8927 32.9711 22.2258 30.0826 22.2258C28.3605 22.2258 26.8052 21.3648 25.8608 20.0594Z" fill="#D1D3D4"/>
<path fill-rule="evenodd" clip-rule="evenodd" d="M28.555 18.3096C27.3329 18.0041 26.4996 17.7264 26.4996 17.7264C26.3608 16.4765 26.4719 15.3655 26.4719 15.3655C26.9996 15.0878 28.4439 14.449 28.4439 14.449C29.1382 15.2266 29.777 16.2543 29.777 16.2543C29.4715 16.8653 28.555 18.3096 28.555 18.3096ZM26.5552 13.1991C25.8608 13.8657 25.3331 14.6989 25.0554 15.671C25.1665 15.5044 25.4442 15.1155 25.7497 14.7267C26.083 13.9768 26.4441 13.3935 26.5552 13.1991ZM32.0268 16.2265C32.0268 16.2265 32.4712 15.2822 33.0267 14.5045C33.0267 14.5045 34.0821 15.0044 34.582 15.4211C34.582 15.4211 34.7765 15.9766 34.6376 17.643C34.6376 17.643 33.9988 18.0041 33.0822 18.2263C33.11 18.2263 32.4712 17.1709 32.0268 16.2265ZM29.6659 20.115L31.9157 20.0594L32.3601 21.2815C31.4991 21.7814 30.4714 22.0592 30.4714 22.0592C29.3882 21.837 28.7772 21.3648 28.7772 21.3648L29.6659 20.115ZM30.1103 11.7826C30.8047 11.7826 31.4435 11.9215 32.0546 12.1714C32.0268 12.2548 31.9712 12.5325 31.749 12.8936C30.6658 12.7547 29.4437 12.8658 29.4437 12.8658L28.4439 12.0603C28.9716 11.8937 29.5271 11.7826 30.1103 11.7826ZM26.7496 21.0038C26.8052 20.976 26.8885 20.8927 26.9718 20.8371C26.9718 20.8371 26.1663 19.6706 25.833 19.004C25.833 19.004 25.3053 18.4485 25.0276 18.1707C25.2776 19.2817 25.8886 20.2816 26.7496 21.0038Z" fill="#101C44"/>
<path fill-rule="evenodd" clip-rule="evenodd" d="M25.4442 25.1977L25.4164 25.2811L25.3886 25.3644C25.3609 25.4477 25.3053 25.4755 25.2498 25.5033C25.222 25.5033 25.1664 25.5033 25.1387 25.4755C25.1109 25.4477 25.0831 25.4199 25.0831 25.3644V25.2811L25.0554 24.9755C25.0276 24.8367 24.9998 24.7256 24.9165 24.6422L24.7776 24.4756L24.6387 24.3089C24.5276 24.1979 24.4165 24.1423 24.3054 24.1423C24.2221 24.1701 24.1388 24.2256 24.0555 24.3089L23.9444 24.4478L23.861 24.5589C23.8333 24.6145 23.7499 24.5867 23.7499 24.5867V24.5589C23.7222 24.5034 23.7222 24.4478 23.7222 24.3923C23.7222 24.3089 23.7499 24.2256 23.7777 24.1423L23.861 23.9757L23.9444 23.7812V23.7535C23.9721 23.7257 23.9999 23.6701 24.0277 23.5868L24.0555 23.5313L24.111 23.3924C24.1943 23.2257 24.3054 23.1702 24.4999 23.2535C24.6387 23.3368 24.7221 23.4479 24.7776 23.559L24.8332 23.6424L24.8887 23.7257L24.9998 23.8646C25.3053 24.2256 25.472 24.5589 25.472 24.8922C25.4997 25.0033 25.472 25.1144 25.4442 25.1977ZM24.2499 27.8641C24.0555 27.9196 23.861 27.9474 23.6388 27.9474L23.6111 27.9196L23.5555 27.8919C23.5277 27.8641 23.5 27.8363 23.5277 27.7808C23.6111 27.5308 23.861 27.2253 24.1943 27.1697H24.361C24.3888 27.1697 24.4443 27.1975 24.4721 27.2808V27.4475C24.4165 27.6141 24.3888 27.7808 24.2499 27.8641ZM20.5003 21.3926C20.5003 21.3926 20.4725 21.3926 20.5003 21.3926C20.4725 21.3926 20.4725 21.3926 20.5003 21.3926H20.4725C20.4448 21.4204 20.3892 21.4482 20.3337 21.4204V21.3926C20.2503 21.0038 20.167 20.5872 20.0004 20.1983L19.917 20.0317L19.8893 19.9761L19.806 19.865C19.7504 19.7539 19.6949 19.6428 19.7782 19.4762C19.8615 19.3928 19.9726 19.3928 20.0559 19.4206C20.2226 19.5317 20.3337 19.7261 20.417 19.865C20.5281 20.0872 20.5559 20.3927 20.5559 20.6983C20.5836 20.9204 20.5559 21.1704 20.5003 21.3926C20.5003 21.3926 20.4725 21.3926 20.5003 21.3926ZM28.2217 28.3085C27.6384 27.9752 27.3884 27.3086 27.0273 26.8087C26.8885 26.6142 26.6663 26.5031 26.5552 26.3087C26.1386 25.17 25.7775 24.0034 25.6664 22.698C25.5831 22.3647 25.4997 22.0314 25.3331 21.7259C24.8054 20.8649 24.111 20.0872 23.4444 19.2817L23.25 19.0873L20.9169 17.1431C20.6392 16.9209 20.3059 16.782 19.9726 16.6432C19.4727 16.4487 18.8061 16.5043 18.3339 16.6987C17.834 16.9765 17.3896 17.3375 16.8618 17.5319C16.0842 17.8652 15.2231 17.9486 14.5843 18.5318C14.1955 18.8651 13.89 19.3928 13.3067 19.3095C12.6679 19.2817 12.0846 19.5039 11.6124 19.9206C11.168 20.3094 10.7792 20.7816 10.1959 20.8927C9.696 21.0871 9.11273 21.0038 8.61279 21.1982C7.80732 21.3926 7.19628 22.0314 6.50192 22.5036C5.83533 22.8924 5.16874 23.3091 4.3355 23.3091C3.78001 23.2813 3.25229 22.8924 3.08564 22.3647C2.91899 21.7537 3.11342 21.1149 3.58558 20.726C4.08553 20.115 4.89099 19.7817 5.27984 19.0873C5.47426 18.7263 5.44648 18.143 5.16874 17.7819C4.64102 17.2542 3.8911 17.2264 3.22451 17.0598C2.78012 16.9487 2.44683 16.6154 2.08576 16.3932C1.94688 16.6154 1.89133 16.8654 1.91911 17.1431C2.00243 17.7541 2.4746 18.3096 3.05787 18.5318C3.39116 18.6707 3.80778 18.5596 4.14108 18.6429C4.25217 18.6707 4.3355 18.7818 4.3355 18.8929C4.30772 19.004 4.30772 19.0873 4.2244 19.1706C3.66891 19.6428 3.08564 20.0872 2.64125 20.6427C2.14131 21.1704 2.08576 22.1148 2.33573 22.7813C2.61347 23.559 3.41894 24.059 4.19663 24.1423C4.75212 24.2256 5.25206 24.0868 5.77978 23.9757C5.83533 23.9757 5.89088 24.0312 5.91865 24.0868C5.9742 24.5311 5.89088 24.9478 6.00197 25.3644C6.0853 25.7532 6.22417 26.0032 6.36305 26.392C6.39082 26.5309 6.36304 26.6698 6.27972 26.7531C6.00197 26.9753 5.69645 27.1142 5.39093 27.2531L4.61324 27.3086L4.47437 27.3642C4.19663 27.6975 4.16885 28.0307 4.0022 28.4196C3.78001 28.8084 3.33561 29.0029 2.97454 29.2251C2.86344 29.4195 2.72457 29.6139 2.55792 29.7528C2.41905 29.8639 2.28018 29.8916 2.11353 29.9194C1.83578 30.2249 1.78023 30.6416 1.72469 31.0582C2.16908 31.086 2.61347 31.3359 3.03009 31.086C3.39116 30.9193 3.47449 30.4749 3.75223 30.2249C3.97443 30.0027 4.27995 30.1694 4.55769 30.2249C4.94654 30.2527 5.22429 29.975 5.52981 29.8361C5.752 29.6972 5.94642 29.4195 6.16862 29.2806C6.61302 29.0584 7.25183 29.1695 7.724 29.2806C8.08507 29.3917 8.50169 29.3084 8.80721 29.1695C9.11273 28.9751 9.39048 28.7529 9.75154 28.6696C10.0571 28.5029 10.1959 28.1696 10.3348 27.8919C10.4459 27.6141 10.6959 27.4197 10.6681 27.1142C10.5848 27.0586 10.5015 26.892 10.3904 26.9198C10.2515 27.1142 10.1404 27.3364 9.97374 27.5308C9.2516 28.5029 8.69611 28.5862 7.25183 28.5862C6.16862 28.5585 5.22429 28.864 4.47437 29.6972C4.41882 29.725 4.36327 29.6972 4.30772 29.6694C4.27995 29.5583 4.36327 29.3639 4.41882 29.2806C5.08541 28.3363 6.11307 28.1418 7.16851 28.1141C7.75177 28.0863 8.30727 27.9752 8.80721 27.7252C9.3627 27.4475 9.75155 27.0031 9.97374 26.4476C10.1126 25.8366 10.1404 25.17 10.307 24.5589C10.3348 24.5034 10.4737 24.4478 10.5292 24.4756C10.5848 24.4756 10.6959 24.5311 10.6959 24.6145C10.5848 25.2255 10.3904 25.9477 10.6403 26.5309C11.1125 27.142 11.9735 26.8087 12.6123 26.7809C13.2789 26.7253 13.8066 26.7809 14.4455 26.8087C14.751 26.8087 15.0009 26.8642 15.2509 26.6698C15.3065 26.5587 15.3342 26.4198 15.3342 26.3087C15.3065 26.1421 15.1676 26.031 15.3342 25.8643C15.3898 25.8366 15.5287 25.8643 15.5564 25.8921C15.6398 26.1421 15.6953 26.392 15.8342 26.6142C16.1397 27.0309 16.6119 27.3364 17.0563 27.5586C17.4729 27.8363 17.8062 28.2529 17.834 28.7529C17.834 29.0029 17.6118 29.1973 17.3896 29.3084C17.0563 29.475 16.6952 29.6139 16.3064 29.5861C15.7786 29.3362 15.6398 28.7807 15.3065 28.364C15.1398 28.1141 14.8621 28.0863 14.6121 28.0863C14.3344 28.1141 14.0288 28.1141 13.7789 28.2252C13.7233 28.2807 13.6955 28.364 13.6955 28.4474C13.8622 28.7807 14.0566 29.0862 14.2788 29.4195C14.501 29.5583 14.8065 29.3362 15.0287 29.5861C15.1954 29.8361 15.3065 30.1416 15.5564 30.336C15.8064 30.5582 16.1675 30.6416 16.5008 30.5027C17.2229 30.2805 17.9451 30.0305 18.6394 29.6694H18.8616C19.1394 29.6417 19.4449 29.6694 19.6393 29.4473C19.8615 29.1417 20.0281 28.8362 20.1948 28.5029C20.3614 28.2807 20.2781 27.9196 20.2226 27.6974C19.8893 27.2808 19.6949 26.8087 19.5282 26.3365C19.3616 26.2809 19.2227 26.1976 19.0283 26.1976C18.9449 26.2254 18.8061 26.2254 18.7505 26.3087L19.5282 27.8363C19.5838 27.9474 19.6393 28.1141 19.6115 28.2807C19.5004 28.614 19.3338 28.9195 19.0838 29.1695C19.0283 29.1973 18.9727 29.2251 18.9449 29.1695C19.0283 28.8362 19.1949 28.4751 19.1671 28.0863L18.4172 26.7253C18.3339 26.5309 18.1672 26.3643 18.195 26.1421C18.195 26.031 18.2783 25.9754 18.3617 25.9476C18.695 25.8366 19.1116 25.8643 19.3616 25.5866C19.6949 25.0589 19.7782 24.5589 19.8615 23.9479C19.8893 23.9201 19.9726 23.8368 20.0281 23.8368C20.0837 23.809 20.167 23.8923 20.1948 23.9201C20.3059 24.5867 20.167 25.2811 19.7504 25.8088C19.7226 25.8643 19.6949 25.9754 19.7782 26.0032C20.1392 26.1143 20.5559 26.0032 20.8614 25.8366C21.278 25.8366 21.6391 25.7532 22.0001 25.6977C22.0279 25.7255 22.0835 25.7532 22.0835 25.8088C21.8335 26.0865 21.6946 26.392 21.6391 26.7531C21.3336 27.0586 20.9169 27.3364 20.8892 27.753C20.9447 27.9752 21.1391 27.753 21.2502 27.7808C21.3058 27.7808 21.3613 27.8363 21.3613 27.8919L20.9725 28.364C20.8058 28.614 21.0003 28.9195 21.0003 29.1695C21.0558 29.3639 21.3058 29.475 21.5002 29.475C21.9446 29.4472 22.3334 29.2806 22.7223 29.1417C23.1667 28.9473 23.6944 28.9751 24.1666 29.0306C24.6387 29.0029 24.972 28.6973 25.3053 28.3918C25.4997 28.3918 25.6664 28.5307 25.7775 28.6696C26.3052 29.2528 26.9996 29.475 27.7773 29.475L27.8328 29.4473C27.8884 29.3917 27.8606 29.3084 27.805 29.2806L27.3329 29.0584C26.9996 28.864 26.6107 28.5862 26.4996 28.2252C26.3885 27.8919 26.2219 27.5586 26.0275 27.2253C25.9719 27.0586 25.8053 26.9475 25.7219 26.7809C25.7497 26.7531 25.7497 26.7253 25.7775 26.7531C26.2774 26.9198 26.583 27.4197 26.8329 27.8919C27.194 28.4196 27.7495 28.864 28.4439 28.7251L28.4994 28.6696C28.5272 28.6418 28.5272 28.5862 28.4994 28.5585L28.2217 28.3085Z" fill="#D61E3F"/>
<path fill-rule="evenodd" clip-rule="evenodd" d="M2.1413 29.3917C2.44682 29.2251 2.64125 28.8918 2.80789 28.5862C2.78012 28.4751 2.66902 28.3918 2.5857 28.3085C2.53015 28.253 2.44682 28.3085 2.3635 28.3085C2.1413 28.5029 1.91911 28.6418 1.69691 28.7807C1.58581 28.8362 1.64136 29.0029 1.61359 29.114C1.61359 29.2251 1.72468 29.2806 1.78023 29.3362C1.86356 29.4195 2.00243 29.4473 2.1413 29.3917Z" fill="#D61E3F"/>
<path fill-rule="evenodd" clip-rule="evenodd" d="M1.11365 29.4194C0.947 29.5028 0.780351 29.6416 0.752577 29.8361C0.697027 30.1416 0.780351 30.4471 0.53038 30.6693C0.53038 30.7248 0.474831 30.8082 0.53038 30.8637C0.752577 30.9193 0.946999 31.0304 1.22474 31.0581C1.33584 30.6693 1.41917 30.2527 1.55804 29.9194V29.8083C1.41917 29.6694 1.30807 29.475 1.11365 29.4194Z" fill="#D61E3F"/>
<path fill-rule="evenodd" clip-rule="evenodd" d="M16.0008 28.3917C16.1953 28.6139 16.1953 28.9472 16.4175 29.1139C16.723 29.1694 16.973 29.0583 17.1951 28.8639C17.334 28.7528 17.1396 28.6139 17.1118 28.5028C16.973 28.3084 17.084 27.9473 16.7508 27.9196C16.4452 27.9751 16.1119 27.9751 15.8064 27.9751L15.7231 28.0307C15.6953 28.2251 15.9453 28.2251 16.0008 28.3917Z" fill="#D61E3F"/>
<path fill-rule="evenodd" clip-rule="evenodd" d="M59.4125 30.4471C59.357 30.2249 59.4125 29.9194 59.2737 29.6972C59.1348 29.5861 59.0237 29.4472 58.8571 29.5028C58.7182 29.6139 58.5238 29.7527 58.5515 29.9749C58.6626 30.336 58.746 30.586 58.8293 30.947C58.8571 31.0026 58.8293 31.1415 58.9404 31.1415L59.5792 30.947C59.6347 30.7526 59.4403 30.6137 59.4125 30.4471Z" fill="#D61E3F"/>
<path fill-rule="evenodd" clip-rule="evenodd" d="M41.359 19.0595L41.3035 19.1429L41.2479 19.2262L40.9424 19.5039L40.6091 19.8094C40.3592 20.0594 40.1925 20.2538 40.0536 20.4483C39.9425 20.5871 39.8592 20.7538 39.8037 20.9204C39.7759 20.976 39.7203 20.976 39.6926 20.9482H39.6648V20.9204C39.637 20.8649 39.637 20.7816 39.637 20.726C39.637 20.6705 39.637 20.6149 39.6648 20.5594L39.7203 20.3094L39.7481 20.1983C39.9425 19.6983 40.3592 19.1706 40.9146 18.754C40.998 18.6985 41.1091 18.6707 41.2202 18.6985C41.2757 18.7262 41.3313 18.754 41.359 18.8096C41.3868 18.8373 41.3868 18.8929 41.3868 18.9207C41.3868 19.004 41.3868 19.0318 41.359 19.0595C41.359 19.0595 41.3868 19.0595 41.359 19.0595ZM37.3595 24.6422L37.3317 24.7255L37.2484 24.8089C37.2206 24.8366 37.1651 24.8366 37.1095 24.8089C37.054 24.7811 37.0262 24.7533 36.9707 24.6978L36.9151 24.6422L36.8873 24.5867C36.8318 24.5034 36.804 24.4478 36.6929 24.4478C36.6096 24.4478 36.5263 24.4756 36.4707 24.5311L36.4152 24.5867L36.3874 24.6144L36.2763 24.6978L36.1374 24.8089L36.0819 24.8644L35.8875 25.0588C35.7486 25.1977 35.6653 25.3366 35.6375 25.4755L35.6097 25.5866V25.6977C35.5819 25.7532 35.5819 25.8365 35.4986 25.8921C35.4431 25.9199 35.3875 25.8921 35.3597 25.8643C35.332 25.8365 35.3042 25.8088 35.3042 25.7532C35.2764 25.281 35.4431 24.8366 35.7486 24.5311C35.9152 24.3923 36.0541 24.2256 36.1652 24.0867L36.3041 23.9201L36.554 23.6146L36.5818 23.5868C36.7762 23.559 36.8873 23.7257 36.9151 23.7812C37.0818 24.0034 37.2206 24.2256 37.3317 24.5311V24.5867C37.3595 24.6144 37.3595 24.6422 37.3595 24.6422ZM37.1373 28.0585C37.054 28.114 36.9984 28.1418 36.8873 28.1418L36.6929 28.114H36.6096C36.4152 28.003 36.3874 27.8085 36.3596 27.5863C36.3596 27.503 36.3874 27.4475 36.4429 27.4197C36.6929 27.4197 36.8873 27.503 37.0262 27.6419L37.054 27.7252L37.1095 27.8363H37.1373H37.1095C37.1373 27.8919 37.1373 27.9196 37.1373 27.9752C37.1651 27.9752 37.1373 28.0307 37.1373 28.0585ZM58.0516 29.9194C57.5516 29.9472 57.3017 29.4195 56.9961 29.0862C56.7462 28.8084 56.274 28.6418 56.274 28.2251C56.1907 28.0585 56.1629 27.7808 56.0796 27.5863C56.024 27.4197 55.9407 27.1419 55.7185 27.1142C55.3019 27.0586 54.7742 27.1697 54.5242 26.7809C54.2465 26.4753 54.552 26.1421 54.6075 25.8643C54.7186 25.5032 54.7464 25.0311 54.6631 24.6422C54.6631 24.42 54.4964 24.2534 54.552 24.0312C54.6631 23.8368 54.8853 23.9756 55.0241 24.0034C55.5796 24.1701 56.2185 24.0867 56.7184 23.8645C57.4128 23.5312 57.9683 22.8369 57.9405 22.0314C57.8294 21.0038 57.1072 20.1427 56.3018 19.4761C56.1629 19.3373 55.9685 19.1984 55.9129 19.0318C55.8852 18.6151 56.3573 18.8373 56.5795 18.7262C56.8573 18.6707 57.135 18.5874 57.3572 18.4207C57.9683 18.0041 58.0794 17.3097 57.9683 16.6154C57.9405 16.5598 57.9405 16.4765 57.8572 16.4765C57.7461 16.5598 57.635 16.6987 57.4961 16.782C57.1072 17.0042 56.6073 16.9764 56.1907 17.1709C55.6907 17.3931 55.0797 17.6986 54.8575 18.2541C54.8019 18.5318 54.8575 18.8373 54.9964 19.0595C55.6074 20.0316 56.885 20.6427 57.1072 21.8092C57.1906 22.2814 56.9406 22.6147 56.5795 22.8924C56.024 23.2257 55.1908 23.1146 54.6631 22.8091C53.6076 22.2814 52.6911 21.3926 51.5245 21.0315C50.8024 20.6982 49.9136 20.7816 49.2748 20.2816C48.8026 19.9761 48.3582 19.5595 47.8028 19.4206C47.4417 19.2817 46.9973 19.3095 46.664 19.1151C46.3029 18.8096 45.9419 18.504 45.5252 18.3096C44.942 18.0319 44.3309 17.8652 43.6921 17.7263C43.331 17.643 43.1922 17.2264 42.8866 17.032C42.3589 16.6154 41.7757 16.3376 41.0813 16.3932C40.7758 16.4209 40.5536 16.6154 40.3314 16.8098C38.8316 18.1152 37.1095 19.0318 35.7208 20.5316C34.8042 21.4759 34.5543 22.698 34.221 23.8645C33.721 25.6421 33.5266 27.5863 31.749 28.6695C31.7213 28.7251 31.7213 28.8084 31.7768 28.8362C32.249 28.9473 32.7211 28.7806 33.0267 28.4473C33.3322 27.9752 33.6655 27.503 34.0821 27.0586L34.1932 27.0031C34.2487 27.0031 34.3043 27.0308 34.2765 27.1142C34.1654 27.503 33.8044 27.7808 33.6933 28.1974C33.5266 28.6695 33.0822 29.0306 32.6934 29.3639V29.4195C32.6934 29.475 32.7489 29.5306 32.8045 29.5306C33.6655 29.5583 34.2765 28.9473 34.8598 28.364C34.9153 28.3085 34.9987 28.3085 35.082 28.3362C35.332 28.5307 35.5819 28.8362 35.9152 28.8917C36.2763 28.8362 36.6374 28.7806 37.0262 28.8362C37.5539 29.0028 38.0539 29.1973 38.5816 29.3917C38.8593 29.3917 39.0538 29.1139 39.1926 28.9195C39.3037 28.6695 39.1371 28.4196 39.1648 28.1696C39.3037 28.0863 39.4426 28.1974 39.5815 28.1418C39.637 28.114 39.6926 28.0307 39.6926 27.9752C39.5815 27.5308 39.1926 27.1975 39.0538 26.7531C38.8593 26.2254 38.2205 25.8921 38.1094 25.3088C38.1372 25.281 38.1927 25.1977 38.2483 25.2533C38.6649 25.5588 39.0538 25.9476 39.5537 26.031C39.9425 26.0587 40.3592 26.1143 40.748 26.0865C40.8036 26.0587 40.8591 26.0032 40.8313 25.9199C40.6647 25.5588 40.498 25.2255 40.4147 24.8366C40.2758 24.3645 40.1925 23.6979 40.3314 23.1702C40.3592 23.1424 40.498 23.0591 40.5536 23.0868C40.6369 23.1146 40.7202 23.1979 40.748 23.2813C40.8036 24.1145 40.7202 24.8922 41.2202 25.531C41.4424 25.8643 41.8034 25.9476 42.0812 26.1976C42.1923 26.3365 42.1923 26.5587 42.1367 26.7253L41.5257 27.6141C41.3868 27.8085 41.2479 28.0307 41.1924 28.2529C41.1368 28.5029 41.1646 28.7251 41.1924 28.9751C41.1646 29.0028 41.1368 28.9473 41.0813 28.9195C40.9147 28.5862 40.748 28.1696 40.9146 27.8085L41.6646 26.642L41.6923 26.5587C41.5257 26.4753 41.3313 26.392 41.1646 26.3365C41.0813 26.3643 41.0257 26.4753 40.9702 26.5309L40.1925 27.8085C40.137 27.9752 40.0814 28.0863 40.137 28.2529C40.1647 28.4473 40.2203 28.6418 40.3036 28.8084C40.3592 29.0862 40.4147 29.2806 40.5258 29.5028C40.7202 29.6972 40.9702 29.5306 41.1924 29.5861C41.4146 29.6417 41.5257 29.9194 41.7479 30.0027C42.2756 30.1694 42.8589 30.2805 43.3866 30.4749C43.6643 30.5582 44.0532 30.6693 44.3032 30.4471C44.6364 30.2527 44.7475 29.8916 44.8031 29.5583C44.9142 29.4195 45.1364 29.475 45.2753 29.4195C45.5808 29.225 45.6641 28.864 45.8863 28.614L45.9141 28.4751C45.8863 28.3918 45.803 28.3362 45.7197 28.3085H44.7475C44.2754 28.364 44.2476 28.8917 44.0532 29.1973C43.9421 29.3917 43.7199 29.475 43.4977 29.4472C43.0255 29.3084 42.4423 29.2528 42.2201 28.7529C42.1923 28.614 42.1923 28.4751 42.2756 28.3918C42.5256 28.114 42.8033 27.7808 43.1088 27.5586C43.5532 27.4752 43.9699 27.1419 44.1921 26.7531C44.3032 26.5864 44.3032 26.3365 44.4976 26.2254C44.5531 26.2254 44.692 26.1976 44.7198 26.2809C44.8031 26.5587 44.6364 26.7809 44.5531 27.0031C45.6363 27.1142 46.4418 26.8086 47.4972 26.8364C47.9416 26.8364 48.3305 26.892 48.7749 26.8642C49.2193 26.8364 49.6914 26.6698 49.8303 26.2254C50.0247 25.6421 49.747 24.9755 49.6636 24.4478L49.7747 24.3645C49.8303 24.3367 49.9692 24.3923 49.9969 24.42C50.1914 24.9477 50.3025 25.5588 50.3858 26.1421C50.4691 26.642 50.6913 26.9753 50.9691 27.3919C51.469 28.1418 52.3578 28.4196 53.2188 28.2529C54.2742 28.1696 55.1908 28.7251 55.8296 29.5583V29.6139C55.8018 29.6417 55.7741 29.6972 55.7185 29.6972C55.163 29.2528 54.6075 28.8084 53.8854 28.7251C53.1632 28.5862 52.4967 28.9751 51.7467 28.6695C50.8302 28.364 50.4413 27.8085 50.0803 26.9197H49.9969C49.9414 26.9197 49.8858 26.9753 49.8858 27.0586L49.9969 27.6697C50.108 28.1696 50.2747 28.7529 50.8024 28.9751C51.219 29.225 51.6079 29.5861 52.1356 29.4472C53.0244 29.2528 53.9409 29.5028 54.6353 30.0027C54.8575 30.1416 55.0241 30.3638 55.2741 30.4471C55.5519 30.5582 55.8574 30.5027 56.0796 30.3082C56.5795 30.1416 56.6906 30.7804 57.0517 31.0026C57.3572 31.3081 57.9683 31.1693 58.3571 31.1693V31.1137C58.3293 30.586 58.2182 30.2805 58.0516 29.9194Z" fill="#D61E3F"/>
<path fill-rule="evenodd" clip-rule="evenodd" d="M43.8588 28.0863C43.581 28.1419 43.2755 28.0863 43.0255 28.1141C42.9144 28.2807 42.8033 28.5029 42.8311 28.7529C42.8589 29.0029 43.1366 29.0306 43.3033 29.0862C43.4699 29.114 43.7199 29.1695 43.8032 28.9751C43.9143 28.7251 43.9976 28.4474 44.0254 28.1696C43.9976 28.1141 43.9143 28.0863 43.8588 28.0863Z" fill="#D61E3F"/>
<path fill-rule="evenodd" clip-rule="evenodd" d="M57.8016 28.3917C57.6072 28.2251 57.385 28.4751 57.3017 28.6139C57.3572 28.8639 57.5794 29.0583 57.7183 29.2528C57.8016 29.3638 57.9127 29.4472 58.0516 29.4472C58.1905 29.4472 58.3016 29.3916 58.3849 29.3083C58.4404 29.225 58.5237 29.1139 58.496 28.975C58.3293 28.7528 58.0516 28.5862 57.8016 28.3917Z" fill="#D61E3F"/>
<path fill-rule="evenodd" clip-rule="evenodd" d="M16.3897 34.1689L16.8618 34.7521L18.8338 33.1412L18.3617 32.5579L16.3897 34.1689ZM13.8344 36.2797L14.3066 36.863L16.2786 35.2521L15.8064 34.6688L13.8344 36.2797ZM18.4728 31.4747L19.4449 32.669C19.7226 33.0023 19.6671 33.4745 19.3338 33.7522L17.5284 35.2243C17.2507 35.4465 17.0563 35.4187 16.8618 35.3354C16.9174 35.5298 16.8896 35.752 16.5563 36.0298L14.8065 37.4463C14.4732 37.724 14.0011 37.6685 13.7233 37.3352L12.7512 36.1409L18.4728 31.4747Z" fill="#151C4A"/>
<path fill-rule="evenodd" clip-rule="evenodd" d="M22.0557 38.8628L22.7501 39.1961L23.861 36.9186L23.1667 36.5853L22.0557 38.8628ZM22.3334 36.5297C22.6112 35.9742 23.3056 35.7243 23.861 36.002C24.4165 36.2798 24.6665 36.9741 24.3888 37.5296L21.6391 43.1679L20.9447 42.8346L22.389 39.8627L21.6946 39.5294L20.2503 42.5013L19.556 42.168L22.3334 36.5297Z" fill="#151C4A"/>
<path d="M32.6934 44.6677L33.4433 44.5566L33.11 42.4457C32.9989 41.8069 32.7489 40.5015 32.61 39.9182H32.6378C33.11 41.5014 33.721 42.9734 34.221 44.4455L34.9431 44.3344L33.8321 37.0297L33.0822 37.1408L33.4155 39.2516C33.5266 39.8904 33.7766 41.1959 33.9154 41.7791H33.8877C33.4155 40.196 32.8045 38.7239 32.3045 37.2519L31.5824 37.363L32.6934 44.6677Z" fill="#151C4A"/>
<path fill-rule="evenodd" clip-rule="evenodd" d="M35.2325 37.3463L35.9869 37.0643L38.3014 43.2562L37.5469 43.5383L35.2325 37.3463Z" fill="#151C4A"/>
<path fill-rule="evenodd" clip-rule="evenodd" d="M34.471 37.613L34.1932 36.8631L36.3874 36.0576L36.6651 36.8075L34.471 37.613Z" fill="#151C4A"/>
<path fill-rule="evenodd" clip-rule="evenodd" d="M36.8638 35.7592L37.5407 35.3763L41.1919 41.831L40.515 42.2139L36.8638 35.7592Z" fill="#151C4A"/>
<path d="M42.9422 40.6959L43.5255 40.2238L42.1645 38.5573C41.7479 38.0574 40.8591 37.0852 40.4425 36.6131H40.4703C41.6923 37.7518 42.97 38.6684 44.1643 39.6961L44.7198 39.2239L40.0259 33.5023L39.4426 33.9745L40.8036 35.641C41.2202 36.1409 42.109 37.113 42.5256 37.5852H42.4978C41.2757 36.4464 39.9981 35.5299 38.8038 34.5022L38.2483 34.9744L42.9422 40.6959Z" fill="#151C4A"/>
<path d="M46.664 35.8909L46.1918 36.5019L41.609 32.8635L42.0812 32.2524L46.664 35.8909ZM45.4697 36.8908C45.9696 37.2796 46.6918 37.1963 47.0806 36.6964C47.4695 36.1964 47.3861 35.4743 46.8862 35.0854L42.8033 31.8636C42.3034 31.4747 41.5813 31.5581 41.1924 32.058C40.8036 32.5579 40.8869 33.2801 41.3868 33.6689L45.4697 36.8908Z" fill="#151C4A"/>
<path fill-rule="evenodd" clip-rule="evenodd" d="M18.9727 36.8075L19.5838 37.2796L21.1391 35.2799L20.5281 34.8077L18.9727 36.8075ZM20.417 33.7245L21.6113 34.6688C21.9446 34.9188 22.0002 35.4187 21.7502 35.752L20.3059 37.5852C20.0837 37.8629 19.8893 37.8629 19.6671 37.8351C19.7782 38.0018 19.806 38.224 19.5282 38.585L18.0284 40.5293C17.8895 40.6959 17.8617 40.8626 17.834 41.0848L17.2229 40.6126C17.2507 40.4459 17.3062 40.2237 17.4173 40.0849L19.1116 37.9185L18.5006 37.4463L16.473 40.0571L15.862 39.5849L20.417 33.7245Z" fill="#151C4A"/>
<path d="M26.3052 43.3068L26.9996 40.446L25.8886 40.1682L25.6942 40.9737L25.9997 41.057L25.4442 43.3623L24.8054 43.2235L26.1108 37.7796L26.7496 37.9463L26.4719 39.0295L27.2773 39.2239L27.4717 38.3907C27.8328 36.8908 25.5831 36.3354 25.222 37.8352L24.0277 42.7513C23.6111 44.3067 25.9997 44.8899 26.3052 43.3068Z" fill="#151C4A"/>
<path fill-rule="evenodd" clip-rule="evenodd" d="M29.1382 40.6959L29.9159 40.7236L30.0548 38.1684L29.2771 38.1406L29.1382 40.6959ZM28.4994 38.4184C28.5272 37.7795 29.0827 37.3074 29.6937 37.3351C30.3325 37.3629 30.8047 37.9184 30.7769 38.5295L30.4436 44.8343L29.6659 44.8065L29.8326 41.5013L29.0549 41.4736L28.916 44.751L28.1383 44.7232L28.4994 38.4184Z" fill="#151C4A"/>
</g>
<defs>
<clipPath id="clip0_19_386">
<rect width="60" height="48.432" fill="white" transform="translate(0 0.784058)"/>
</clipPath>
</defs>
</svg>
